<?xml version="1.0" encoding="utf-8"?>
<!-- Generator: Adobe Illustrator 21.1.0, SVG Export Plug-In . SVG Version: 6.00 Build 0)  -->
<svg version="1.1" id="Layer_1" xmlns="http://www.w3.org/2000/svg" xmlns:xlink="http://www.w3.org/1999/xlink" x="0px" y="0px"
	 viewBox="0 0 564 320" style="enable-background:new 0 0 564 320;" xml:space="preserve">
<style type="text/css">
	.st0{fill:#57D9A3;}
	.st1{fill:#333333;}
	.st2{fill:#FFFFFF;}
	.st3{fill:#717171;}
	.st4{fill:#E9E9E9;}
	.st5{fill:#2684FF;}
	.st6{fill:#79E2F2;}
</style>
<path class="st0" d="M36.2,35.6h148.7v272.1H36.2L36.2,35.6z"/>
<g>
	<path class="st1" d="M45.4,19.8c0,2.5-1.5,3.5-3.8,3.5c-0.9,0-2.1-0.2-3-1.1c-0.5-0.6-0.7-1.3-0.7-2.3v-6.2h2v6.1
		c0,1.3,0.8,1.9,1.7,1.9c1.3,0,1.9-0.6,1.9-1.8v-6.1h2v6H45.4z"/>
	<path class="st1" d="M51.1,18.3c-0.1-0.4-0.2-0.9-1.2-0.9s-1.1,0.4-1.1,0.7c0,1.1,4.3,0.3,4.3,2.8c0,2-2,2.4-3,2.4
		c-1.6,0-3.3-0.5-3.3-2.4h1.9c0,0.6,0.4,1,1.5,1c0.9,0,1.2-0.5,1.2-0.7c0-1.2-4.3-0.3-4.3-2.9c0-1,0.6-2.3,2.8-2.3
		c1.4,0,3,0.3,3.1,2.3H51.1"/>
	<path class="st1" d="M60.3,21.1c-0.5,1.7-1.9,2.2-3,2.2c-2,0-3.4-0.9-3.4-3.8c0-0.8,0.3-3.5,3.3-3.5c1.4,0,3.2,0.7,3.2,3.8v0.3
		h-4.7c0.1,0.5,0.2,1.7,1.6,1.7c0.5,0,1-0.3,1.2-0.8L60.3,21.1L60.3,21.1z M58.5,18.9c-0.1-1.1-0.8-1.5-1.4-1.5
		c-0.9,0-1.3,0.5-1.4,1.5H58.5"/>
	<path class="st1" d="M61.6,16.2h1.7v1.2c0.4-0.7,0.8-1.4,1.9-1.4c0.1,0,0.2,0,0.4,0v1.8c-0.2,0-0.4,0-0.5,0c-1.4,0-1.7,0.9-1.7,1.7
		v3.6h-1.8V16.2"/>
	<path class="st1" d="M80.2,23.1h-1.8v-4.2c0-1-0.5-1.4-1-1.4c-0.9,0-1.2,0.6-1.2,1.4V23h-1.8v-4.2c0-0.6,0-1.4-1.1-1.4
		c-0.9,0-1.1,0.6-1.1,1.4V23h-1.8v-6.9H72v1c0.2-0.5,0.7-1.2,2-1.2c1,0,1.5,0.4,1.9,1.1c0.2-0.3,0.7-1.1,1.8-1.1
		c1.4,0,2.4,0.8,2.4,2.3L80.2,23.1L80.2,23.1z"/>
	<path class="st1" d="M87.4,21.7c0,0.8,0.2,1,0.4,1.1v0.3h-2c-0.1-0.3-0.1-0.4-0.2-0.8c-0.4,0.4-1,1-2.2,1c-1,0-2.1-0.6-2.1-2
		s0.9-2,2-2.2l1.6-0.2c0.3,0,0.6-0.2,0.6-0.5c0-0.8-0.7-0.8-1.2-0.8c-0.9,0-1.1,0.6-1.1,1h-1.8c0.2-2.1,1.7-2.4,3.1-2.4
		c1,0,2.8,0.3,2.8,2L87.4,21.7L87.4,21.7z M85.6,19.7c-0.2,0.1-0.5,0.3-1.2,0.4s-1.2,0.3-1.2,1c0,0.6,0.5,0.8,0.8,0.8
		c0.8,0,1.6-0.5,1.6-1.4L85.6,19.7"/>
	<path class="st1" d="M95.3,23.1h-1.8v-4.2c0-0.5,0-1.4-1.2-1.4c-0.8,0-1.4,0.5-1.4,1.6v4H89v-6.9h1.7v1c0.2-0.4,0.8-1.2,2.1-1.2
		c1.4,0,2.4,0.8,2.4,2.3v4.8L95.3,23.1z"/>
	<path class="st1" d="M102.6,21.7c0,0.8,0.2,1,0.4,1.1v0.3h-2c-0.1-0.3-0.1-0.4-0.2-0.8c-0.4,0.4-1,1-2.2,1c-1,0-2.1-0.6-2.1-2
		s0.9-2,2-2.2l1.6-0.2c0.3,0,0.6-0.2,0.6-0.5c0-0.8-0.7-0.8-1.2-0.8c-0.9,0-1.1,0.6-1.1,1h-1.8c0.2-2.1,1.7-2.4,3.1-2.4
		c1,0,2.8,0.3,2.8,2L102.6,21.7L102.6,21.7z M100.8,19.7c-0.2,0.1-0.5,0.3-1.2,0.4s-1.2,0.3-1.2,1c0,0.6,0.5,0.8,0.8,0.8
		c0.8,0,1.6-0.5,1.6-1.4L100.8,19.7"/>
	<path class="st1" d="M110.4,16.2v6.6c0,1.2-0.1,3.2-3.5,3.2c-1.4,0-2.9-0.6-3-2.1h2c0.1,0.4,0.2,0.7,1.3,0.7c1,0,1.4-0.5,1.4-1.6
		v-0.8c-0.3,0.5-0.8,1-1.8,1c-1.7,0-3-1.2-3-3.6s1.4-3.6,2.9-3.6c1.3,0,1.8,0.8,2,1.2v-1L110.4,16.2 M107.1,21.6
		c1.2,0,1.5-1.1,1.5-2c0-1.1-0.5-2-1.6-2c-0.7,0-1.4,0.5-1.4,2.1C105.6,20.6,106,21.6,107.1,21.6"/>
	<path class="st1" d="M118.1,21.1c-0.5,1.7-1.9,2.2-3,2.2c-2,0-3.4-0.9-3.4-3.8c0-0.8,0.3-3.5,3.3-3.5c1.4,0,3.2,0.7,3.2,3.8v0.3
		h-4.7c0.1,0.5,0.2,1.7,1.6,1.7c0.5,0,1-0.3,1.2-0.8L118.1,21.1L118.1,21.1z M116.3,18.9c-0.1-1.1-0.8-1.5-1.4-1.5
		c-0.9,0-1.3,0.5-1.4,1.5H116.3"/>
	<path class="st1" d="M129.3,23.1h-1.8v-4.2c0-1-0.5-1.4-1-1.4c-0.9,0-1.2,0.6-1.2,1.4V23h-1.8v-4.2c0-0.6,0-1.4-1.1-1.4
		c-0.9,0-1.1,0.6-1.1,1.4V23h-1.8v-6.9h1.7v1c0.2-0.5,0.7-1.2,2-1.2c1,0,1.5,0.4,1.9,1.1c0.2-0.3,0.7-1.1,1.8-1.1
		c1.4,0,2.4,0.8,2.4,2.3V23.1"/>
	<path class="st1" d="M136.9,21.1c-0.5,1.7-1.9,2.2-3,2.2c-2,0-3.4-0.9-3.4-3.8c0-0.8,0.3-3.5,3.3-3.5c1.4,0,3.2,0.7,3.2,3.8v0.3
		h-4.7c0.1,0.5,0.2,1.7,1.6,1.7c0.5,0,1-0.3,1.2-0.8L136.9,21.1L136.9,21.1z M135.1,18.9c-0.1-1.1-0.8-1.5-1.4-1.5
		c-0.9,0-1.3,0.5-1.4,1.5H135.1"/>
	<path class="st1" d="M144.4,23.1h-1.8v-4.2c0-0.5,0-1.4-1.2-1.4c-0.8,0-1.4,0.5-1.4,1.6v4h-1.8v-6.9h1.7v1c0.2-0.4,0.8-1.2,2.1-1.2
		c1.4,0,2.4,0.8,2.4,2.3V23.1"/>
	<path class="st1" d="M148.2,16.2h1.1v1.3h-1.1v3.8c0,0.4,0,0.6,0.8,0.6c0.1,0,0.2,0,0.4,0v1.4c-0.3,0-0.6,0-0.9,0h-0.2
		c-1.6,0-1.9-0.6-1.9-1.5v-4.2h-0.9v-1.3h0.9v-1.9h1.8L148.2,16.2"/>
</g>
<path class="st2" d="M38.9,37.8h143.3V97H38.9L38.9,37.8z"/>
<g>
	<path class="st3" d="M52.6,50.1c-0.3-1.4-1.5-1.6-2.2-1.6c-1.4,0-2.6,1.1-2.6,3.1c0,1.9,0.7,3.3,2.6,3.3c0.7,0,1.9-0.3,2.3-2.2h1
		c-0.4,3-2.9,3.1-3.5,3.1c-1.8,0-3.6-1.2-3.6-4.2c0-2.4,1.4-4.1,3.7-4.1c2,0,3.1,1.3,3.2,2.6L52.6,50.1"/>
	<path class="st3" d="M55.9,55.6h-1v-5.8h0.9v1c0.4-0.7,0.9-1.1,1.6-1.1c0.1,0,0.2,0,0.3,0v1h-0.4c-0.9,0-1.5,0.7-1.5,1.5v3.4
		L55.9,55.6z"/>
	<path class="st3" d="M63.2,53.8c0,0.3-0.3,1.1-1,1.6c-0.3,0.2-0.6,0.4-1.6,0.4c-1.6,0-2.6-1.2-2.6-2.9c0-1.8,0.9-3.2,2.8-3.2
		c1.7,0,2.5,1.3,2.5,3.4h-4.2c0,1.2,0.6,1.9,1.7,1.9c0.9,0,1.5-0.7,1.5-1.1h0.9L63.2,53.8z M62.3,52.3c-0.1-0.9-0.4-1.7-1.6-1.7
		c-0.9,0-1.6,0.8-1.6,1.7H62.3"/>
	<path class="st3" d="M64.4,51.6c0-1.4,1-1.9,2.4-1.9c0.5,0,2.1,0.1,2.1,1.6v3.3c0,0.2,0.1,0.3,0.3,0.3c0.1,0,0.2,0,0.3,0v0.7
		c-0.2,0-0.3,0.1-0.5,0.1c-0.9,0-1-0.4-1-0.9c-0.4,0.4-1,0.9-2.1,0.9S64.1,55,64.1,54c0-0.5,0.1-1.6,1.7-1.8l1.6-0.2
		c0.2,0,0.5-0.1,0.5-0.7c0-0.6-0.4-0.9-1.4-0.9c-1.1,0-1.3,0.7-1.3,1.1h-0.8L64.4,51.6z M67.9,52.7c-0.2,0.1-0.4,0.2-1.6,0.4
		c-0.5,0.1-1.2,0.2-1.2,0.9c0,0.6,0.3,1,1,1c0.9,0,1.8-0.6,1.8-1.4L67.9,52.7"/>
	<path class="st3" d="M71.7,50.7v3.7c0,0.5,0.4,0.5,0.6,0.5h0.3v0.8c-0.4,0-0.6,0.1-0.7,0.1c-1,0-1.2-0.5-1.2-1.2v-3.8H70V50h0.8
		v-1.6h1V50h0.9v0.8L71.7,50.7L71.7,50.7z"/>
	<path class="st3" d="M78.2,53.8c0,0.3-0.3,1.1-1,1.6c-0.3,0.2-0.6,0.4-1.6,0.4c-1.6,0-2.6-1.2-2.6-2.9c0-1.8,0.9-3.2,2.8-3.2
		c1.7,0,2.5,1.3,2.5,3.4h-4.2c0,1.2,0.6,1.9,1.7,1.9c0.9,0,1.5-0.7,1.5-1.1h0.9L78.2,53.8z M77.3,52.3c-0.1-0.9-0.4-1.7-1.6-1.7
		c-0.9,0-1.6,0.8-1.6,1.7H77.3"/>
	<path class="st3" d="M82.5,51.6c0-1.4,1-1.9,2.4-1.9c0.5,0,2.1,0.1,2.1,1.6v3.3c0,0.2,0.1,0.3,0.3,0.3c0.1,0,0.2,0,0.3,0v0.7
		c-0.2,0-0.3,0.1-0.5,0.1c-0.9,0-1-0.4-1-0.9c-0.4,0.4-1,0.9-2.1,0.9S82.2,55,82.2,54c0-0.5,0.1-1.6,1.7-1.8l1.6-0.2
		c0.2,0,0.5-0.1,0.5-0.7c0-0.6-0.4-0.9-1.4-0.9c-1.1,0-1.3,0.7-1.3,1.1h-0.8L82.5,51.6z M86,52.7c-0.2,0.1-0.4,0.2-1.6,0.4
		c-0.5,0.1-1.2,0.2-1.2,0.9c0,0.6,0.3,1,1,1c0.9,0,1.8-0.6,1.8-1.4L86,52.7"/>
	<path class="st3" d="M93.3,55.6h-1v-3.5c0-1-0.3-1.5-1.2-1.5c-0.5,0-1.5,0.4-1.5,1.9v3.1h-1v-5.8h0.9v0.8c0.2-0.3,0.7-1,1.7-1
		c0.9,0,2,0.4,2,2L93.3,55.6L93.3,55.6z"/>
	<path class="st3" d="M97.8,51.6c0-1.4,1-1.9,2.4-1.9c0.5,0,2.1,0.1,2.1,1.6v3.3c0,0.2,0.1,0.3,0.3,0.3c0.1,0,0.2,0,0.3,0v0.7
		c-0.2,0-0.3,0.1-0.5,0.1c-0.9,0-1-0.4-1-0.9c-0.4,0.4-1,0.9-2.1,0.9S97.5,55,97.5,54c0-0.5,0.1-1.6,1.7-1.8l1.6-0.2
		c0.2,0,0.5-0.1,0.5-0.7c0-0.6-0.4-0.9-1.4-0.9c-1.1,0-1.3,0.7-1.3,1.1h-0.8L97.8,51.6z M101.3,52.7c-0.2,0.1-0.4,0.2-1.6,0.4
		c-0.5,0.1-1.2,0.2-1.2,0.9c0,0.6,0.3,1,1,1c0.9,0,1.8-0.6,1.8-1.4L101.3,52.7"/>
	<path class="st3" d="M107.5,51.8c-0.1-0.8-0.5-1.2-1.4-1.2c-1.2,0-1.6,1.1-1.6,2.2c0,1,0.2,2.2,1.6,2.2c0.6,0,1.2-0.5,1.4-1.4h0.9
		c-0.1,0.9-0.7,2.2-2.3,2.2c-1.6,0-2.6-1.2-2.6-2.9c0-1.8,0.9-3.2,2.8-3.2c1.5,0,2.1,1.1,2.2,2.1L107.5,51.8"/>
	<path class="st3" d="M113,51.8c-0.1-0.8-0.5-1.2-1.4-1.2c-1.2,0-1.6,1.1-1.6,2.2c0,1,0.2,2.2,1.6,2.2c0.6,0,1.2-0.5,1.4-1.4h0.9
		c-0.1,0.9-0.7,2.2-2.3,2.2c-1.6,0-2.6-1.2-2.6-2.9c0-1.8,0.9-3.2,2.8-3.2c1.5,0,2.1,1.1,2.2,2.1L113,51.8"/>
	<path class="st3" d="M117.3,49.7c1.8,0,2.7,1.6,2.7,3c0,1.5-0.8,3-2.7,3c-1.8,0-2.7-1.6-2.7-3S115.4,49.7,117.3,49.7 M117.3,55
		c1.4,0,1.7-1.4,1.7-2.2s-0.3-2.2-1.7-2.2c-1.4,0-1.7,1.4-1.7,2.2C115.6,53.5,115.9,55,117.3,55"/>
	<path class="st3" d="M124.8,55.6v-0.8c-0.4,0.7-0.9,1-1.8,1c-0.8,0-1.9-0.4-1.9-1.8v-4.1h1v3.8c0,0.9,0.5,1.3,1.1,1.3
		c1.2,0,1.6-1.1,1.6-1.9v-3.2h1v5.8L124.8,55.6L124.8,55.6z"/>
	<path class="st3" d="M131.9,55.6h-1v-3.5c0-1-0.3-1.5-1.2-1.5c-0.5,0-1.5,0.4-1.5,1.9v3.1h-1v-5.8h0.9v0.8c0.2-0.3,0.7-1,1.7-1
		c0.9,0,2,0.4,2,2v4H131.9z"/>
	<path class="st3" d="M134.5,50.7v3.7c0,0.5,0.4,0.5,0.6,0.5h0.3v0.8c-0.4,0-0.6,0.1-0.7,0.1c-1,0-1.2-0.5-1.2-1.2v-3.8h-0.8V50h0.8
		v-1.6h1V50h0.9v0.8L134.5,50.7L134.5,50.7z"/>
</g>
<g>
	<path class="st4" d="M47.4,64.4h116.7v2H47.4L47.4,64.4z"/>
	<path class="st4" d="M47.4,73.3h116.7v2H47.4L47.4,73.3z"/>
	<path class="st4" d="M47.4,82.3h94.2v2H47.4L47.4,82.3z"/>
</g>
<path class="st2" d="M38.9,99.8h143.3V159H38.9L38.9,99.8z"/>
<g>
	<path class="st3" d="M51.8,112c-0.1-1.2-1.1-1.6-2-1.6c-0.7,0-1.8,0.2-1.8,1.4c0,0.7,0.5,0.9,0.9,1l2.3,0.5c1,0.2,1.8,0.9,1.8,2.1
		c0,1.9-1.7,2.4-3.1,2.4c-1.5,0-2-0.4-2.4-0.8c-0.7-0.6-0.8-1.3-0.8-2h1c0,1.4,1.2,1.8,2.2,1.8c0.8,0,2.1-0.2,2.1-1.3
		c0-0.8-0.4-1.1-1.7-1.4l-1.6-0.4c-0.5-0.1-1.7-0.5-1.7-1.9c0-1.2,0.8-2.4,2.7-2.4c2.8,0,3,1.7,3.1,2.5h-1V112z"/>
	<path class="st3" d="M55.4,112.7v3.7c0,0.5,0.4,0.5,0.6,0.5h0.3v0.8c-0.4,0-0.6,0.1-0.7,0.1c-1,0-1.2-0.5-1.2-1.2v-3.8h-0.8V112
		h0.8v-1.6h1v1.6h0.9v0.8L55.4,112.7L55.4,112.7z"/>
	<path class="st3" d="M59.4,111.7c1.8,0,2.7,1.6,2.7,3c0,1.5-0.8,3-2.7,3c-1.8,0-2.7-1.6-2.7-3C56.8,113.3,57.6,111.7,59.4,111.7
		 M59.4,117c1.4,0,1.7-1.4,1.7-2.2c0-0.8-0.3-2.2-1.7-2.2s-1.7,1.4-1.7,2.2C57.8,115.5,58,117,59.4,117"/>
	<path class="st3" d="M64.3,117.6h-1v-5.8h0.9v1c0.4-0.7,0.9-1.1,1.6-1.1c0.1,0,0.2,0,0.3,0v1h-0.4c-0.9,0-1.5,0.7-1.5,1.5
		L64.3,117.6L64.3,117.6z"/>
	<path class="st3" d="M71.5,115.8c0,0.3-0.3,1.1-1,1.6c-0.3,0.2-0.6,0.4-1.6,0.4c-1.6,0-2.6-1.2-2.6-2.9c0-1.8,0.9-3.2,2.8-3.2
		c1.7,0,2.5,1.3,2.5,3.4h-4.2c0,1.2,0.6,1.9,1.7,1.9c0.9,0,1.5-0.7,1.5-1.1h0.9L71.5,115.8z M70.6,114.3c-0.1-0.9-0.4-1.7-1.6-1.7
		c-0.9,0-1.6,0.8-1.6,1.7H70.6"/>
	<path class="st3" d="M77.5,117.6h-0.9v-0.8c-0.4,0.8-1.1,1-1.6,1c-2,0-2.5-1.8-2.5-3.2c0-1.6,0.9-2.9,2.4-2.9c1,0,1.5,0.6,1.7,1
		v-0.1v-2.9h1L77.5,117.6L77.5,117.6z M75,117c0.6,0,1.6-0.4,1.6-1.9c0-0.9-0.2-2.4-1.6-2.4c-1.5,0-1.6,1.4-1.6,2.2
		C73.4,116,73.9,117,75,117"/>
	<path class="st3" d="M81.9,111.9h0.9v0.8c0.2-0.3,0.7-1,1.7-1c1.5,0,2.4,1.3,2.4,2.9c0,1.4-0.6,3.2-2.5,3.2c-0.8,0-1.3-0.4-1.5-0.8
		v2.9h-1V111.9 M84.4,117c1.1,0,1.6-1,1.6-2.2c0-0.7-0.1-2.2-1.6-2.2c-1.4,0-1.6,1.5-1.6,2.4C82.8,116.6,83.7,117,84.4,117"/>
	<path class="st3" d="M88,113.6c0-1.4,1-1.9,2.4-1.9c0.5,0,2.1,0.1,2.1,1.6v3.3c0,0.2,0.1,0.3,0.3,0.3c0.1,0,0.2,0,0.3,0v0.7
		c-0.2,0-0.3,0.1-0.5,0.1c-0.9,0-1-0.4-1-0.9c-0.4,0.4-1,0.9-2.1,0.9s-1.8-0.7-1.8-1.7c0-0.5,0.1-1.6,1.7-1.8L91,114
		c0.2,0,0.5-0.1,0.5-0.7s-0.4-0.9-1.4-0.9c-1.1,0-1.3,0.7-1.3,1.1L88,113.6L88,113.6z M91.6,114.7c-0.2,0.1-0.4,0.2-1.6,0.4
		c-0.5,0.1-1.2,0.2-1.2,0.9c0,0.6,0.3,1,1,1c0.9,0,1.8-0.6,1.8-1.4L91.6,114.7"/>
	<path class="st3" d="M97.4,111.9h1.1c-0.7,1.9-1.3,3.8-2.1,5.6c-0.9,2.3-1,2.5-2.3,2.5c-0.1,0-0.3,0-0.4-0.1V119
		c0.1,0,0.3,0.1,0.6,0.1c0.5,0,0.6-0.1,1-1.3l-2.1-5.9h1.1l1.5,4.7L97.4,111.9"/>
	<path class="st3" d="M99.3,111.9h0.9v0.8c0.2-0.3,0.7-1,1.7-1s1.4,0.6,1.5,0.9c0.5-0.5,0.9-0.9,1.8-0.9c0.6,0,1.8,0.3,1.8,1.9v4h-1
		v-3.7c0-0.8-0.2-1.3-1.1-1.3c-0.8,0-1.4,0.8-1.4,1.5v3.5h-1v-4c0-0.5-0.2-1.1-0.9-1.1c-0.5,0-1.5,0.4-1.5,1.9v3.1h-1v-5.6
		L99.3,111.9z"/>
	<path class="st3" d="M113.4,115.8c0,0.3-0.3,1.1-1,1.6c-0.3,0.2-0.6,0.4-1.6,0.4c-1.6,0-2.6-1.2-2.6-2.9c0-1.8,0.9-3.2,2.8-3.2
		c1.7,0,2.5,1.3,2.5,3.4h-4.2c0,1.2,0.6,1.9,1.7,1.9c0.9,0,1.5-0.7,1.5-1.1h0.9L113.4,115.8z M112.5,114.3c-0.1-0.9-0.4-1.7-1.6-1.7
		c-0.9,0-1.6,0.8-1.6,1.7H112.5"/>
	<path class="st3" d="M119.3,117.6h-1v-3.5c0-1-0.3-1.5-1.2-1.5c-0.5,0-1.5,0.4-1.5,1.9v3.1h-1v-5.8h0.9v0.8c0.2-0.3,0.7-1,1.7-1
		c0.9,0,2,0.4,2,2L119.3,117.6L119.3,117.6z"/>
	<path class="st3" d="M121.9,112.7v3.7c0,0.5,0.4,0.5,0.6,0.5h0.3v0.8c-0.4,0-0.6,0.1-0.7,0.1c-1,0-1.2-0.5-1.2-1.2v-3.8h-0.8V112
		h0.8v-1.6h1v1.6h0.9v0.8L121.9,112.7L121.9,112.7z"/>
	<path class="st3" d="M126.9,110.8v-1.1h1v1.1H126.9 M127.8,117.6h-1v-5.8h1V117.6"/>
	<path class="st3" d="M134,117.6h-1v-3.5c0-1-0.3-1.5-1.2-1.5c-0.5,0-1.5,0.4-1.5,1.9v3.1h-1v-5.8h0.9v0.8c0.2-0.3,0.7-1,1.7-1
		c0.9,0,2,0.4,2,2v4H134z"/>
	<path class="st3" d="M136.6,112.7v5h-1v-5h-0.8v-0.8h0.8v-1c0-0.9,0.5-1.3,1.5-1.3c0.1,0,0.3,0,0.4,0v0.9c-0.1,0-0.3,0-0.4,0
		c-0.4,0-0.6,0.2-0.6,0.7v0.7h1v0.8L136.6,112.7"/>
	<path class="st3" d="M140.5,111.7c1.8,0,2.7,1.6,2.7,3c0,1.5-0.8,3-2.7,3c-1.8,0-2.7-1.6-2.7-3S138.6,111.7,140.5,111.7 M140.5,117
		c1.4,0,1.7-1.4,1.7-2.2c0-0.8-0.3-2.2-1.7-2.2s-1.7,1.4-1.7,2.2C138.8,115.5,139.1,117,140.5,117"/>
</g>
<g>
	<path class="st4" d="M47.4,126.4h116.7v2H47.4L47.4,126.4z"/>
	<path class="st4" d="M47.4,135.3h116.7v2H47.4L47.4,135.3z"/>
	<path class="st4" d="M47.4,144.3h94.2v2H47.4L47.4,144.3z"/>
</g>
<path class="st2" d="M38.9,161.8h143.3V221H38.9L38.9,161.8z"/>
<g>
	<path class="st3" d="M48.1,178.7h4v0.9H47v-7.9h1.1V178.7"/>
	<path class="st3" d="M53,172.8v-1.1h1v1.1H53 M54,179.6h-1v-5.8h1V179.6"/>
	<path class="st3" d="M60.2,179.6h-1v-3.5c0-1-0.3-1.5-1.2-1.5c-0.5,0-1.5,0.4-1.5,1.9v3.1h-1v-5.8h0.9v0.8c0.2-0.3,0.7-1,1.7-1
		c0.9,0,2,0.4,2,2L60.2,179.6L60.2,179.6z"/>
	<path class="st3" d="M66.4,179.6h-1.2l-1.8-2.9l-0.8,0.7v2.2h-0.9v-7.9h0.9v4.6l2.5-2.4h1.2L64,176L66.4,179.6"/>
	<path class="st3" d="M71.7,177.8c0,0.3-0.3,1.1-1,1.6c-0.3,0.2-0.6,0.4-1.6,0.4c-1.6,0-2.6-1.2-2.6-2.9c0-1.8,0.9-3.2,2.8-3.2
		c1.7,0,2.5,1.3,2.5,3.4h-4.2c0,1.2,0.6,1.9,1.7,1.9c0.9,0,1.5-0.7,1.5-1.1L71.7,177.8L71.7,177.8z M70.8,176.3
		c-0.1-0.9-0.4-1.7-1.6-1.7c-0.9,0-1.6,0.8-1.6,1.7H70.8"/>
	<path class="st3" d="M77.8,179.6h-0.9v-0.8c-0.4,0.8-1.1,1-1.6,1c-2,0-2.5-1.8-2.5-3.2c0-1.6,0.9-2.9,2.4-2.9c1,0,1.5,0.6,1.7,1
		v-0.1v-2.9h1L77.8,179.6L77.8,179.6z M75.2,179c0.6,0,1.6-0.4,1.6-1.9c0-0.9-0.2-2.4-1.6-2.4c-1.5,0-1.6,1.4-1.6,2.2
		C73.6,178,74.1,179,75.2,179"/>
	<path class="st3" d="M83.4,174.7v5h-1v-5h-0.8v-0.8h0.8v-1c0-0.9,0.5-1.3,1.5-1.3c0.1,0,0.3,0,0.4,0v0.9c-0.1,0-0.3,0-0.4,0
		c-0.4,0-0.6,0.2-0.6,0.7v0.7h1v0.8L83.4,174.7"/>
	<path class="st3" d="M84.8,175.6c0-1.4,1-1.9,2.4-1.9c0.5,0,2.1,0.1,2.1,1.6v3.3c0,0.2,0.1,0.3,0.3,0.3c0.1,0,0.2,0,0.3,0v0.7
		c-0.2,0-0.3,0.1-0.5,0.1c-0.9,0-1-0.4-1-0.9c-0.4,0.4-1,0.9-2.1,0.9s-1.8-0.7-1.8-1.7c0-0.5,0.1-1.6,1.7-1.8l1.6-0.2
		c0.2,0,0.5-0.1,0.5-0.7c0-0.6-0.4-0.9-1.4-0.9c-1.1,0-1.3,0.7-1.3,1.1L84.8,175.6L84.8,175.6z M88.4,176.7
		c-0.2,0.1-0.4,0.2-1.6,0.4c-0.5,0.1-1.2,0.2-1.2,0.9c0,0.6,0.3,1,1,1c0.9,0,1.8-0.6,1.8-1.4L88.4,176.7"/>
	<path class="st3" d="M91,173.9h0.9v0.8c0.2-0.3,0.7-1,1.7-1s1.4,0.6,1.5,0.9c0.5-0.5,0.9-0.9,1.8-0.9c0.6,0,1.8,0.3,1.8,1.9v4h-1
		v-3.7c0-0.8-0.2-1.3-1.1-1.3c-0.8,0-1.4,0.8-1.4,1.5v3.5h-1v-4c0-0.5-0.2-1.1-0.9-1.1c-0.5,0-1.5,0.4-1.5,1.9v3.1h-1v-5.6L91,173.9
		z"/>
	<path class="st3" d="M100.2,172.8v-1.1h1v1.1H100.2 M101.1,179.6h-1v-5.8h1V179.6"/>
	<path class="st3" d="M103.6,179.6h-1v-7.9h1V179.6"/>
	<path class="st3" d="M108.4,173.9h1.1c-0.7,1.9-1.3,3.8-2.1,5.6c-0.9,2.3-1,2.5-2.3,2.5c-0.1,0-0.3,0-0.4-0.1V181
		c0.1,0,0.3,0.1,0.6,0.1c0.5,0,0.6-0.1,1-1.3l-2.1-5.9h1.1l1.5,4.7L108.4,173.9"/>
	<path class="st3" d="M113.3,173.9h0.9v0.8c0.2-0.3,0.7-1,1.7-1c1.5,0,2.4,1.3,2.4,2.9c0,1.4-0.6,3.2-2.5,3.2
		c-0.8,0-1.3-0.4-1.5-0.8v2.9h-1V173.9 M115.8,179c1.1,0,1.6-1,1.6-2.2c0-0.7-0.1-2.2-1.6-2.2c-1.4,0-1.6,1.5-1.6,2.4
		C114.2,178.6,115.2,179,115.8,179"/>
	<path class="st3" d="M120.6,179.6h-1v-5.8h0.9v1c0.4-0.7,0.9-1.1,1.6-1.1c0.1,0,0.2,0,0.3,0v1H122c-0.9,0-1.5,0.7-1.5,1.5
		L120.6,179.6L120.6,179.6z"/>
	<path class="st3" d="M125.3,173.7c1.8,0,2.7,1.6,2.7,3c0,1.5-0.8,3-2.7,3c-1.8,0-2.7-1.6-2.7-3S123.4,173.7,125.3,173.7
		 M125.3,178.9c1.4,0,1.7-1.4,1.7-2.2s-0.3-2.2-1.7-2.2c-1.4,0-1.7,1.4-1.7,2.2S123.9,178.9,125.3,178.9"/>
	<path class="st3" d="M130.3,174.7v5h-1v-5h-0.8v-0.8h0.8v-1c0-0.9,0.5-1.3,1.5-1.3c0.1,0,0.3,0,0.4,0v0.9c-0.1,0-0.3,0-0.4,0
		c-0.4,0-0.6,0.2-0.6,0.7v0.7h1v0.8L130.3,174.7 M132.1,172.8v-1.1h1v1.1H132.1 M133.1,179.6h-1v-5.8h1V179.6"/>
	<path class="st3" d="M135.4,179.6h-1v-7.9h1V179.6"/>
	<path class="st3" d="M141.7,177.8c0,0.3-0.3,1.1-1,1.6c-0.3,0.2-0.6,0.4-1.6,0.4c-1.6,0-2.6-1.2-2.6-2.9c0-1.8,0.9-3.2,2.8-3.2
		c1.7,0,2.5,1.3,2.5,3.4h-4.2c0,1.2,0.6,1.9,1.7,1.9c0.9,0,1.5-0.7,1.5-1.1L141.7,177.8L141.7,177.8z M140.8,176.3
		c-0.1-0.9-0.4-1.7-1.6-1.7c-0.9,0-1.6,0.8-1.6,1.7H140.8"/>
	<path class="st3" d="M146.2,175.5c0-0.4-0.1-1-1.4-1c-0.3,0-1.1,0.1-1.1,0.8c0,0.5,0.3,0.6,1,0.8l1,0.2c1.2,0.3,1.6,0.7,1.6,1.5
		c0,1.2-1,1.9-2.3,1.9c-2.3,0-2.4-1.3-2.5-2h0.9c0,0.5,0.2,1.2,1.5,1.2c0.7,0,1.3-0.3,1.3-0.9c0-0.5-0.3-0.6-1.1-0.8l-1.1-0.3
		c-0.8-0.2-1.3-0.6-1.3-1.4c0-1.3,1-1.8,2.2-1.8c2.1,0,2.2,1.5,2.2,1.8H146.2"/>
</g>
<g>
	<path class="st4" d="M47.4,188.4h116.7v2H47.4L47.4,188.4z"/>
	<path class="st4" d="M47.4,197.3h116.7v2H47.4L47.4,197.3z"/>
	<path class="st4" d="M47.4,206.3h94.2v2H47.4L47.4,206.3z"/>
</g>
<path class="st2" d="M38.9,223.8h143.3V283H38.9L38.9,223.8z"/>
<g>
	<path class="st3" d="M46.3,233.7h6.4v0.9H50v7h-1v-7h-2.7V233.7"/>
	<path class="st3" d="M53.4,241.6h-1v-5.8h0.9v1c0.4-0.7,0.9-1.1,1.6-1.1c0.1,0,0.2,0,0.3,0v1h-0.4c-0.9,0-1.5,0.7-1.5,1.5v3.4
		L53.4,241.6z"/>
	<path class="st3" d="M55.8,237.6c0-1.4,1-1.9,2.4-1.9c0.5,0,2.1,0.1,2.1,1.6v3.3c0,0.2,0.1,0.3,0.3,0.3c0.1,0,0.2,0,0.3,0v0.7
		c-0.2,0-0.3,0.1-0.5,0.1c-0.9,0-1-0.4-1-0.9c-0.4,0.4-1,0.9-2.1,0.9s-1.8-0.7-1.8-1.7c0-0.5,0.1-1.6,1.7-1.8l1.6-0.2
		c0.2,0,0.5-0.1,0.5-0.7c0-0.6-0.4-0.9-1.4-0.9c-1.1,0-1.3,0.7-1.3,1.1L55.8,237.6L55.8,237.6z M59.4,238.7
		c-0.2,0.1-0.4,0.2-1.6,0.4c-0.5,0.1-1.2,0.2-1.2,0.9c0,0.6,0.3,1,1,1c0.9,0,1.8-0.6,1.8-1.4V238.7"/>
	<path class="st3" d="M65.4,235.9h1.1l-2.2,5.8h-1l-2.1-5.8h1.1l1.5,4.7L65.4,235.9"/>
	<path class="st3" d="M71.9,239.8c0,0.3-0.3,1.1-1,1.6c-0.3,0.2-0.6,0.4-1.6,0.4c-1.6,0-2.6-1.2-2.6-2.9c0-1.8,0.9-3.2,2.8-3.2
		c1.7,0,2.5,1.3,2.5,3.4h-4.2c0,1.2,0.6,1.9,1.7,1.9c0.9,0,1.5-0.7,1.5-1.1L71.9,239.8L71.9,239.8z M70.9,238.3
		c-0.1-0.9-0.4-1.7-1.6-1.7c-0.9,0-1.6,0.8-1.6,1.7H70.9"/>
	<path class="st3" d="M74.1,241.6h-1v-7.9h1V241.6"/>
	<path class="st3" d="M78.5,235.9h0.9v0.8c0.2-0.3,0.7-1,1.7-1c1.5,0,2.4,1.3,2.4,2.9c0,1.4-0.6,3.2-2.5,3.2c-0.8,0-1.3-0.4-1.5-0.8
		v2.9h-1V235.9 M81,241c1.1,0,1.6-1,1.6-2.2c0-0.7-0.1-2.2-1.6-2.2c-1.4,0-1.6,1.5-1.6,2.4C79.4,240.6,80.4,241,81,241"/>
	<path class="st3" d="M85.8,241.6h-1v-5.8h0.9v1c0.4-0.7,0.9-1.1,1.6-1.1c0.1,0,0.2,0,0.3,0v1h-0.4c-0.9,0-1.5,0.7-1.5,1.5
		L85.8,241.6L85.8,241.6z"/>
	<path class="st3" d="M93,239.8c0,0.3-0.3,1.1-1,1.6c-0.3,0.2-0.6,0.4-1.6,0.4c-1.6,0-2.6-1.2-2.6-2.9c0-1.8,0.9-3.2,2.8-3.2
		c1.7,0,2.5,1.3,2.5,3.4h-4.2c0,1.2,0.6,1.9,1.7,1.9c0.9,0,1.5-0.7,1.5-1.1L93,239.8L93,239.8z M92.1,238.3
		c-0.1-0.9-0.4-1.7-1.6-1.7c-0.9,0-1.6,0.8-1.6,1.7H92.1"/>
	<path class="st3" d="M95.5,236.7v5h-1v-5h-0.8v-0.8h0.8v-1c0-0.9,0.5-1.3,1.5-1.3c0.1,0,0.3,0,0.4,0v0.9c-0.1,0-0.3,0-0.4,0
		c-0.4,0-0.6,0.2-0.6,0.7v0.7h1v0.8L95.5,236.7"/>
	<path class="st3" d="M101.9,239.8c0,0.3-0.3,1.1-1,1.6c-0.3,0.2-0.6,0.4-1.6,0.4c-1.6,0-2.6-1.2-2.6-2.9c0-1.8,0.9-3.2,2.8-3.2
		c1.7,0,2.5,1.3,2.5,3.4h-4.2c0,1.2,0.6,1.9,1.7,1.9c0.9,0,1.5-0.7,1.5-1.1L101.9,239.8L101.9,239.8z M101,238.3
		c-0.1-0.9-0.4-1.7-1.6-1.7c-0.9,0-1.6,0.8-1.6,1.7H101"/>
	<path class="st3" d="M104.2,241.6h-1v-5.8h0.9v1c0.4-0.7,0.9-1.1,1.6-1.1c0.1,0,0.2,0,0.3,0v1h-0.4c-0.9,0-1.5,0.7-1.5,1.5
		L104.2,241.6L104.2,241.6z"/>
	<path class="st3" d="M111.4,239.8c0,0.3-0.3,1.1-1,1.6c-0.3,0.2-0.6,0.4-1.6,0.4c-1.6,0-2.6-1.2-2.6-2.9c0-1.8,0.9-3.2,2.8-3.2
		c1.7,0,2.5,1.3,2.5,3.4h-4.2c0,1.2,0.6,1.9,1.7,1.9c0.9,0,1.5-0.7,1.5-1.1L111.4,239.8L111.4,239.8z M110.5,238.3
		c-0.1-0.9-0.4-1.7-1.6-1.7c-0.9,0-1.6,0.8-1.6,1.7H110.5"/>
	<path class="st3" d="M117.4,241.6h-1v-3.5c0-1-0.3-1.5-1.2-1.5c-0.5,0-1.5,0.4-1.5,1.9v3.1h-1v-5.8h0.9v0.8c0.2-0.3,0.7-1,1.7-1
		c0.9,0,2,0.4,2,2L117.4,241.6L117.4,241.6z"/>
	<path class="st3" d="M122.4,237.8c-0.1-0.8-0.5-1.2-1.4-1.2c-1.2,0-1.6,1.1-1.6,2.2c0,1,0.2,2.2,1.6,2.2c0.6,0,1.2-0.5,1.4-1.4h0.9
		c-0.1,0.9-0.7,2.2-2.3,2.2c-1.6,0-2.6-1.2-2.6-2.9c0-1.8,0.9-3.2,2.8-3.2c1.5,0,2.1,1.1,2.2,2.1L122.4,237.8"/>
	<path class="st3" d="M129.2,239.8c0,0.3-0.3,1.1-1,1.6c-0.3,0.2-0.6,0.4-1.6,0.4c-1.6,0-2.6-1.2-2.6-2.9c0-1.8,0.9-3.2,2.8-3.2
		c1.7,0,2.5,1.3,2.5,3.4h-4.2c0,1.2,0.6,1.9,1.7,1.9c0.9,0,1.5-0.7,1.5-1.1L129.2,239.8L129.2,239.8z M128.3,238.3
		c-0.1-0.9-0.4-1.7-1.6-1.7c-0.9,0-1.6,0.8-1.6,1.7H128.3"/>
	<path class="st3" d="M133.7,237.5c0-0.4-0.1-1-1.4-1c-0.3,0-1.1,0.1-1.1,0.8c0,0.5,0.3,0.6,1,0.8l1,0.2c1.2,0.3,1.6,0.7,1.6,1.5
		c0,1.2-1,1.9-2.3,1.9c-2.3,0-2.4-1.3-2.5-2h0.9c0,0.5,0.2,1.2,1.5,1.2c0.7,0,1.3-0.3,1.3-0.9c0-0.5-0.3-0.6-1.1-0.8l-1.1-0.3
		c-0.8-0.2-1.3-0.6-1.3-1.4c0-1.3,1-1.8,2.2-1.8c2.1,0,2.2,1.5,2.2,1.8H133.7"/>
</g>
<g>
	<path class="st4" d="M47.4,250.4h116.7v2H47.4L47.4,250.4z"/>
	<path class="st4" d="M47.4,259.3h116.7v2H47.4L47.4,259.3z"/>
	<path class="st4" d="M47.4,268.3h94.2v2H47.4L47.4,268.3z"/>
</g>
<path class="st5" d="M209.1,35.6h148.7v272.1H209.1L209.1,35.6z"/>
<g>
	<path class="st1" d="M214.8,23.1h-2v-7.7H210v-1.7h7.6v1.7h-2.8V23.1"/>
	<path class="st1" d="M217.6,16.2h1.7v1.2c0.4-0.7,0.8-1.4,1.9-1.4c0.1,0,0.2,0,0.4,0v1.8c-0.2,0-0.4,0-0.5,0
		c-1.4,0-1.7,0.9-1.7,1.7v3.6h-1.8L217.6,16.2"/>
	<path class="st1" d="M228,21.7c0,0.8,0.2,1,0.4,1.1v0.3h-2c-0.1-0.3-0.1-0.4-0.2-0.8c-0.4,0.4-1,1-2.2,1c-1,0-2.1-0.6-2.1-2
		s0.9-2,2-2.2l1.6-0.2c0.3,0,0.6-0.2,0.6-0.5c0-0.8-0.7-0.8-1.2-0.8c-0.9,0-1.1,0.6-1.1,1H222c0.2-2.1,1.7-2.4,3.1-2.4
		c1,0,2.8,0.3,2.8,2L228,21.7L228,21.7z M226.2,19.7c-0.2,0.1-0.5,0.3-1.2,0.4s-1.2,0.3-1.2,1c0,0.6,0.5,0.8,0.8,0.8
		c0.8,0,1.6-0.5,1.6-1.4L226.2,19.7"/>
	<path class="st1" d="M233.1,23.1h-1.9l-2.5-6.9h2l1.4,5.1l1.5-5.1h1.9L233.1,23.1"/>
	<path class="st1" d="M242.3,21.1c-0.5,1.7-1.9,2.2-3,2.2c-2,0-3.4-0.9-3.4-3.8c0-0.8,0.3-3.5,3.3-3.5c1.4,0,3.2,0.7,3.2,3.8v0.3
		h-4.7c0.1,0.5,0.2,1.7,1.6,1.7c0.5,0,1-0.3,1.2-0.8L242.3,21.1L242.3,21.1z M240.5,18.9c-0.1-1.1-0.8-1.5-1.4-1.5
		c-0.9,0-1.3,0.5-1.4,1.5H240.5"/>
	<path class="st1" d="M245.5,23.1h-1.8v-9.3h1.8V23.1"/>
	<path class="st1" d="M250.8,16.2h1.7v1.2c0.4-0.7,0.8-1.4,1.9-1.4c0.1,0,0.2,0,0.4,0v1.8c-0.2,0-0.4,0-0.5,0
		c-1.4,0-1.7,0.9-1.7,1.7v3.6h-1.8L250.8,16.2"/>
	<path class="st1" d="M261.6,21.1c-0.5,1.7-1.9,2.2-3,2.2c-2,0-3.4-0.9-3.4-3.8c0-0.8,0.3-3.5,3.3-3.5c1.4,0,3.2,0.7,3.2,3.8v0.3
		H257c0.1,0.5,0.2,1.7,1.6,1.7c0.5,0,1-0.3,1.2-0.8L261.6,21.1L261.6,21.1z M259.8,18.9c-0.1-1.1-0.8-1.5-1.4-1.5
		c-0.9,0-1.3,0.5-1.4,1.5H259.8"/>
	<path class="st1" d="M266.8,18.3c-0.1-0.4-0.2-0.9-1.2-0.9s-1.1,0.4-1.1,0.7c0,1.1,4.3,0.3,4.3,2.8c0,2-2,2.4-3,2.4
		c-1.6,0-3.3-0.5-3.3-2.4h1.9c0,0.6,0.4,1,1.5,1c0.9,0,1.2-0.5,1.2-0.7c0-1.2-4.3-0.3-4.3-2.9c0-1,0.6-2.3,2.8-2.3
		c1.4,0,3,0.3,3.1,2.3H266.8"/>
	<path class="st1" d="M276,21.1c-0.5,1.7-1.9,2.2-3,2.2c-2,0-3.4-0.9-3.4-3.8c0-0.8,0.3-3.5,3.3-3.5c1.4,0,3.2,0.7,3.2,3.8v0.3h-4.7
		c0.1,0.5,0.2,1.7,1.6,1.7c0.5,0,1-0.3,1.2-0.8L276,21.1L276,21.1z M274.3,18.9c-0.1-1.1-0.8-1.5-1.4-1.5c-0.9,0-1.3,0.5-1.4,1.5
		H274.3"/>
	<path class="st1" d="M277.3,16.2h1.7v1.2c0.4-0.7,0.8-1.4,1.9-1.4c0.1,0,0.2,0,0.4,0v1.8c-0.2,0-0.4,0-0.5,0
		c-1.4,0-1.7,0.9-1.7,1.7v3.6h-1.8V16.2"/>
	<path class="st1" d="M286.2,23.1h-1.9l-2.5-6.9h2l1.4,5.1l1.5-5.1h1.9L286.2,23.1"/>
	<path class="st1" d="M295.1,21.7c0,0.8,0.2,1,0.4,1.1v0.3h-2c-0.1-0.3-0.1-0.4-0.2-0.8c-0.4,0.4-1,1-2.2,1c-1,0-2.1-0.6-2.1-2
		s0.9-2,2-2.2l1.6-0.2c0.3,0,0.6-0.2,0.6-0.5c0-0.8-0.7-0.8-1.2-0.8c-0.9,0-1.1,0.6-1.1,1h-1.8c0.2-2.1,1.7-2.4,3.1-2.4
		c1,0,2.8,0.3,2.8,2v3.5H295.1z M293.3,19.7c-0.2,0.1-0.5,0.3-1.2,0.4s-1.2,0.3-1.2,1c0,0.6,0.5,0.8,0.8,0.8c0.8,0,1.6-0.5,1.6-1.4
		L293.3,19.7"/>
	<path class="st1" d="M298.8,16.2h1.1v1.3h-1.1v3.8c0,0.4,0,0.6,0.8,0.6c0.1,0,0.2,0,0.4,0v1.4c-0.3,0-0.6,0-0.9,0h-0.2
		c-1.6,0-1.9-0.6-1.9-1.5v-4.2h-1v-1.3h0.9v-1.9h1.8v1.8L298.8,16.2z"/>
	<path class="st1" d="M302.9,15.4h-1.8v-1.7h1.8V15.4 M302.9,16.2v6.9h-1.8v-6.9H302.9"/>
	<path class="st1" d="M307.8,23.3c-1.9,0-3.5-1.1-3.5-3.6s1.7-3.6,3.5-3.6c1.9,0,3.5,1.1,3.5,3.6S309.7,23.3,307.8,23.3 M307.8,17.5
		c-1.4,0-1.7,1.2-1.7,2.1s0.3,2.1,1.7,2.1c1.4,0,1.7-1.2,1.7-2.1S309.2,17.5,307.8,17.5"/>
	<path class="st1" d="M318.9,23.1H317v-4.2c0-0.5,0-1.4-1.2-1.4c-0.8,0-1.4,0.5-1.4,1.6v4h-1.8v-6.9h1.7v1c0.2-0.4,0.8-1.2,2.1-1.2
		c1.4,0,2.4,0.8,2.4,2.3L318.9,23.1L318.9,23.1z"/>
	<path class="st1" d="M324.5,18.3c-0.1-0.4-0.2-0.9-1.2-0.9s-1.1,0.4-1.1,0.7c0,1.1,4.3,0.3,4.3,2.8c0,2-2,2.4-3,2.4
		c-1.6,0-3.3-0.5-3.3-2.4h1.9c0,0.6,0.4,1,1.5,1c0.9,0,1.2-0.5,1.2-0.7c0-1.2-4.3-0.3-4.3-2.9c0-1,0.6-2.3,2.8-2.3
		c1.4,0,3,0.3,3.1,2.3H324.5"/>
</g>
<path class="st2" d="M211.8,37.8h143.3V97H211.8V37.8z"/>
<g>
	<path class="st3" d="M220,47.7h3.5c1.5,0,2.2,0.9,2.2,2c0,0.5-0.2,1.2-1.1,1.7c0.5,0.2,1.4,0.6,1.4,1.9c0,1.3-0.9,2.3-2.7,2.3H220
		L220,47.7 M221,51.1h1.9c1,0,1.7-0.3,1.7-1.3c0-0.7-0.5-1.2-1.6-1.2h-2L221,51.1 M221,54.7h2.3c1.1,0,1.7-0.6,1.7-1.4
		c0-1.1-1-1.3-1.8-1.3H221V54.7"/>
	<path class="st3" d="M229.5,49.7c1.8,0,2.7,1.6,2.7,3c0,1.5-0.8,3-2.7,3c-1.8,0-2.7-1.6-2.7-3C226.9,51.3,227.7,49.7,229.5,49.7
		 M229.5,55c1.4,0,1.7-1.4,1.7-2.2s-0.3-2.2-1.7-2.2s-1.7,1.4-1.7,2.2C227.9,53.5,228.1,55,229.5,55"/>
	<path class="st3" d="M235.7,49.7c1.8,0,2.7,1.6,2.7,3c0,1.5-0.8,3-2.7,3c-1.8,0-2.7-1.6-2.7-3S233.8,49.7,235.7,49.7 M235.7,55
		c1.4,0,1.7-1.4,1.7-2.2s-0.3-2.2-1.7-2.2S234,52,234,52.8C234,53.5,234.3,55,235.7,55"/>
	<path class="st3" d="M244.2,55.6H243l-1.8-2.9l-0.8,0.7v2.2h-0.9v-7.9h0.9v4.6l2.5-2.4h1.2l-2.2,2.1L244.2,55.6"/>
	<path class="st3" d="M251.2,51.5c0-0.4-0.1-1-1.4-1c-0.3,0-1.1,0.1-1.1,0.8c0,0.5,0.3,0.6,1,0.8l1,0.2c1.2,0.3,1.6,0.7,1.6,1.5
		c0,1.2-1,1.9-2.3,1.9c-2.3,0-2.4-1.3-2.5-2h0.9c0,0.5,0.2,1.2,1.5,1.2c0.7,0,1.3-0.3,1.3-0.9c0-0.5-0.3-0.6-1.1-0.8l-1.1-0.3
		c-0.8-0.2-1.3-0.6-1.3-1.4c0-1.3,1-1.8,2.2-1.8c2.1,0,2.2,1.5,2.2,1.8H251.2"/>
	<path class="st3" d="M253.4,49.9h0.9v0.8c0.2-0.3,0.7-1,1.7-1c1.5,0,2.4,1.3,2.4,2.9c0,1.4-0.6,3.2-2.5,3.2c-0.8,0-1.3-0.4-1.5-0.8
		v2.9h-1V49.9 M255.9,55c1.1,0,1.6-1,1.6-2.2c0-0.7-0.1-2.2-1.6-2.2c-1.4,0-1.6,1.5-1.6,2.4C254.3,54.6,255.3,55,255.9,55"/>
	<path class="st3" d="M259.6,51.6c0-1.4,1-1.9,2.4-1.9c0.5,0,2.1,0.1,2.1,1.6v3.3c0,0.2,0.1,0.3,0.3,0.3c0.1,0,0.2,0,0.3,0v0.7
		c-0.2,0-0.3,0.1-0.5,0.1c-0.9,0-1-0.4-1-0.9c-0.4,0.4-1,0.9-2.1,0.9s-1.8-0.7-1.8-1.7c0-0.5,0.1-1.6,1.7-1.8l1.6-0.2
		c0.2,0,0.5-0.1,0.5-0.7c0-0.6-0.4-0.9-1.4-0.9c-1.1,0-1.3,0.7-1.3,1.1h-0.8L259.6,51.6z M263.1,52.7c-0.2,0.1-0.4,0.2-1.6,0.4
		c-0.5,0.1-1.2,0.2-1.2,0.9c0,0.6,0.3,1,1,1c0.9,0,1.8-0.6,1.8-1.4L263.1,52.7"/>
	<path class="st3" d="M269.3,51.8c-0.1-0.8-0.5-1.2-1.4-1.2c-1.2,0-1.6,1.1-1.6,2.2c0,1,0.2,2.2,1.6,2.2c0.6,0,1.2-0.5,1.4-1.4h0.9
		c-0.1,0.9-0.7,2.2-2.3,2.2c-1.6,0-2.6-1.2-2.6-2.9c0-1.8,0.9-3.2,2.8-3.2c1.5,0,2.1,1.1,2.2,2.1L269.3,51.8"/>
	<path class="st3" d="M276.1,53.8c0,0.3-0.3,1.1-1,1.6c-0.3,0.2-0.6,0.4-1.6,0.4c-1.6,0-2.6-1.2-2.6-2.9c0-1.8,0.9-3.2,2.8-3.2
		c1.7,0,2.5,1.3,2.5,3.4H272c0,1.2,0.6,1.9,1.7,1.9c0.9,0,1.5-0.7,1.5-1.1h0.9L276.1,53.8z M275.2,52.3c-0.1-0.9-0.4-1.7-1.6-1.7
		c-0.9,0-1.6,0.8-1.6,1.7H275.2"/>
	<path class="st3" d="M281.6,50.7v3.7c0,0.5,0.4,0.5,0.6,0.5h0.3v0.8c-0.4,0-0.6,0.1-0.7,0.1c-1,0-1.2-0.5-1.2-1.2v-3.8h-0.8V50h0.8
		v-1.6h1V50h0.9v0.8L281.6,50.7L281.6,50.7z"/>
	<path class="st3" d="M284.5,55.6h-1v-5.8h0.9v1c0.4-0.7,0.9-1.1,1.6-1.1c0.1,0,0.2,0,0.3,0v1H286c-0.9,0-1.5,0.7-1.5,1.5V55.6"/>
	<path class="st3" d="M287,51.6c0-1.4,1-1.9,2.4-1.9c0.5,0,2.1,0.1,2.1,1.6v3.3c0,0.2,0.1,0.3,0.3,0.3c0.1,0,0.2,0,0.3,0v0.7
		c-0.2,0-0.3,0.1-0.5,0.1c-0.9,0-1-0.4-1-0.9c-0.4,0.4-1,0.9-2.1,0.9s-1.8-0.7-1.8-1.7c0-0.5,0.1-1.6,1.7-1.8L290,52
		c0.2,0,0.5-0.1,0.5-0.7c0-0.6-0.4-0.9-1.4-0.9c-1.1,0-1.3,0.7-1.3,1.1H287L287,51.6z M290.5,52.7c-0.2,0.1-0.4,0.2-1.6,0.4
		c-0.5,0.1-1.2,0.2-1.2,0.9c0,0.6,0.3,1,1,1c0.9,0,1.8-0.6,1.8-1.4L290.5,52.7"/>
	<path class="st3" d="M296.5,49.9h1.1l-2.2,5.8h-1l-2.1-5.8h1.1l1.5,4.7L296.5,49.9"/>
	<path class="st3" d="M303,53.8c0,0.3-0.3,1.1-1,1.6c-0.3,0.2-0.6,0.4-1.6,0.4c-1.6,0-2.6-1.2-2.6-2.9c0-1.8,0.9-3.2,2.8-3.2
		c1.7,0,2.5,1.3,2.5,3.4h-4.2c0,1.2,0.6,1.9,1.7,1.9c0.9,0,1.5-0.7,1.5-1.1h0.9L303,53.8z M302.1,52.3c-0.1-0.9-0.4-1.7-1.6-1.7
		c-0.9,0-1.6,0.8-1.6,1.7H302.1"/>
	<path class="st3" d="M305.2,55.6h-1v-7.9h1V55.6"/>
</g>
<g>
	<path class="st4" d="M220.3,64.4H337v2H220.3V64.4z"/>
	<path class="st4" d="M220.3,73.3H337v2H220.3V73.3z"/>
	<path class="st4" d="M220.3,82.3h94.2v2h-94.2V82.3z"/>
</g>
<path class="st2" d="M211.8,99.8h143.3V159H211.8V99.8z"/>
<g>
	<path class="st3" d="M220,109.7h3.5c1.5,0,2.2,0.9,2.2,2c0,0.5-0.2,1.2-1.1,1.7c0.5,0.2,1.4,0.6,1.4,1.9s-0.9,2.3-2.7,2.3H220
		L220,109.7 M221,113.1h1.9c1,0,1.7-0.3,1.7-1.3c0-0.7-0.5-1.2-1.6-1.2h-2L221,113.1 M221,116.7h2.3c1.1,0,1.7-0.6,1.7-1.4
		c0-1.1-1-1.3-1.8-1.3H221V116.7"/>
	<path class="st3" d="M229.5,111.7c1.8,0,2.7,1.6,2.7,3c0,1.5-0.8,3-2.7,3c-1.8,0-2.7-1.6-2.7-3
		C226.9,113.3,227.7,111.7,229.5,111.7 M229.5,117c1.4,0,1.7-1.4,1.7-2.2c0-0.8-0.3-2.2-1.7-2.2s-1.7,1.4-1.7,2.2
		C227.9,115.5,228.1,117,229.5,117"/>
	<path class="st3" d="M235.7,111.7c1.8,0,2.7,1.6,2.7,3c0,1.5-0.8,3-2.7,3c-1.8,0-2.7-1.6-2.7-3S233.8,111.7,235.7,111.7 M235.7,117
		c1.4,0,1.7-1.4,1.7-2.2c0-0.8-0.3-2.2-1.7-2.2s-1.7,1.4-1.7,2.2C234,115.5,234.3,117,235.7,117"/>
	<path class="st3" d="M244.2,117.6H243l-1.8-2.9l-0.8,0.7v2.2h-0.9v-7.9h0.9v4.6l2.5-2.4h1.2l-2.2,2.1L244.2,117.6"/>
	<path class="st3" d="M247.9,113.6c0-1.4,1-1.9,2.4-1.9c0.5,0,2.1,0.1,2.1,1.6v3.3c0,0.2,0.1,0.3,0.3,0.3c0.1,0,0.2,0,0.3,0v0.7
		c-0.2,0-0.3,0.1-0.5,0.1c-0.9,0-1-0.4-1-0.9c-0.4,0.4-1,0.9-2.1,0.9s-1.8-0.7-1.8-1.7c0-0.5,0.1-1.6,1.7-1.8l1.6-0.2
		c0.2,0,0.5-0.1,0.5-0.7s-0.4-0.9-1.4-0.9c-1.1,0-1.3,0.7-1.3,1.1L247.9,113.6L247.9,113.6z M251.5,114.7c-0.2,0.1-0.4,0.2-1.6,0.4
		c-0.5,0.1-1.2,0.2-1.2,0.9c0,0.6,0.3,1,1,1c0.9,0,1.8-0.6,1.8-1.4V114.7"/>
	<path class="st3" d="M261.8,117.6h-1v-3.8c0-0.8-0.2-1.3-1.1-1.3c-0.8,0-1.6,0.5-1.6,1.9v3.1h-1v-7.9h1v2.9
		c0.3-0.4,0.8-0.9,1.7-0.9c0.9,0,2,0.4,2,2V117.6"/>
	<path class="st3" d="M265.6,111.7c1.8,0,2.7,1.6,2.7,3c0,1.5-0.8,3-2.7,3c-1.8,0-2.7-1.6-2.7-3S263.8,111.7,265.6,111.7 M265.6,117
		c1.4,0,1.7-1.4,1.7-2.2c0-0.8-0.3-2.2-1.7-2.2c-1.4,0-1.7,1.4-1.7,2.2C263.9,115.5,264.2,117,265.6,117"/>
	<path class="st3" d="M270.6,112.7v3.7c0,0.5,0.4,0.5,0.6,0.5h0.3v0.8c-0.4,0-0.6,0.1-0.7,0.1c-1,0-1.2-0.5-1.2-1.2v-3.8h-0.8V112
		h0.8v-1.6h1v1.6h0.9v0.8L270.6,112.7L270.6,112.7z"/>
	<path class="st3" d="M277.1,115.8c0,0.3-0.3,1.1-1,1.6c-0.3,0.2-0.6,0.4-1.6,0.4c-1.6,0-2.6-1.2-2.6-2.9c0-1.8,0.9-3.2,2.8-3.2
		c1.7,0,2.5,1.3,2.5,3.4H273c0,1.2,0.6,1.9,1.7,1.9c0.9,0,1.5-0.7,1.5-1.1h0.9L277.1,115.8z M276.2,114.3c-0.1-0.9-0.4-1.7-1.6-1.7
		c-0.9,0-1.6,0.8-1.6,1.7H276.2"/>
	<path class="st3" d="M279.3,117.6h-1v-7.9h1V117.6"/>
</g>
<g>
	<path class="st4" d="M220.3,126.4H337v2H220.3V126.4z"/>
	<path class="st4" d="M220.3,135.3H337v2H220.3V135.3z"/>
	<path class="st4" d="M220.3,144.3h94.2v2h-94.2V144.3z"/>
</g>
<path class="st2" d="M211.8,161.8h143.3V221H211.8V161.8z"/>
<g>
	<path class="st3" d="M220,171.7h3.5c1.5,0,2.2,0.9,2.2,2c0,0.5-0.2,1.2-1.1,1.7c0.5,0.2,1.4,0.6,1.4,1.9c0,1.3-0.9,2.3-2.7,2.3H220
		L220,171.7 M221,175.1h1.9c1,0,1.7-0.3,1.7-1.3c0-0.7-0.5-1.2-1.6-1.2h-2L221,175.1 M221,178.7h2.3c1.1,0,1.7-0.6,1.7-1.4
		c0-1.1-1-1.3-1.8-1.3H221V178.7"/>
	<path class="st3" d="M229.5,173.7c1.8,0,2.7,1.6,2.7,3c0,1.5-0.8,3-2.7,3c-1.8,0-2.7-1.6-2.7-3
		C226.9,175.3,227.7,173.7,229.5,173.7 M229.5,178.9c1.4,0,1.7-1.4,1.7-2.2s-0.3-2.2-1.7-2.2s-1.7,1.4-1.7,2.2
		C227.9,177.5,228.1,178.9,229.5,178.9"/>
	<path class="st3" d="M235.7,173.7c1.8,0,2.7,1.6,2.7,3c0,1.5-0.8,3-2.7,3c-1.8,0-2.7-1.6-2.7-3S233.8,173.7,235.7,173.7
		 M235.7,178.9c1.4,0,1.7-1.4,1.7-2.2s-0.3-2.2-1.7-2.2s-1.7,1.4-1.7,2.2S234.3,178.9,235.7,178.9"/>
	<path class="st3" d="M244.2,179.6H243l-1.8-2.9l-0.8,0.7v2.2h-0.9v-7.9h0.9v4.6l2.5-2.4h1.2l-2.2,2.1L244.2,179.6"/>
	<path class="st3" d="M249.1,179.6h-1v-5.8h0.9v1c0.4-0.7,0.9-1.1,1.6-1.1c0.1,0,0.2,0,0.3,0v1h-0.4c-0.9,0-1.5,0.7-1.5,1.5
		L249.1,179.6L249.1,179.6z"/>
	<path class="st3" d="M256.3,177.8c0,0.3-0.3,1.1-1,1.6c-0.3,0.2-0.6,0.4-1.6,0.4c-1.6,0-2.6-1.2-2.6-2.9c0-1.8,0.9-3.2,2.8-3.2
		c1.7,0,2.5,1.3,2.5,3.4h-4.2c0,1.2,0.6,1.9,1.7,1.9c0.9,0,1.5-0.7,1.5-1.1L256.3,177.8L256.3,177.8z M255.4,176.3
		c-0.1-0.9-0.4-1.7-1.6-1.7c-0.9,0-1.6,0.8-1.6,1.7H255.4"/>
	<path class="st3" d="M262.2,179.6h-1v-3.5c0-1-0.3-1.5-1.2-1.5c-0.5,0-1.5,0.4-1.5,1.9v3.1h-1v-5.8h0.9v0.8c0.2-0.3,0.7-1,1.7-1
		c0.9,0,2,0.4,2,2v4H262.2z"/>
	<path class="st3" d="M264.8,174.7v3.7c0,0.5,0.4,0.5,0.6,0.5h0.3v0.8c-0.4,0-0.6,0.1-0.7,0.1c-1,0-1.2-0.5-1.2-1.2v-3.8H263V174
		h0.8v-1.6h1v1.6h0.9v0.8h-0.9L264.8,174.7z"/>
	<path class="st3" d="M266.6,175.6c0-1.4,1-1.9,2.4-1.9c0.5,0,2.1,0.1,2.1,1.6v3.3c0,0.2,0.1,0.3,0.3,0.3c0.1,0,0.2,0,0.3,0v0.7
		c-0.2,0-0.3,0.1-0.5,0.1c-0.9,0-1-0.4-1-0.9c-0.4,0.4-1,0.9-2.1,0.9s-1.8-0.7-1.8-1.7c0-0.5,0.1-1.6,1.7-1.8l1.6-0.2
		c0.2,0,0.5-0.1,0.5-0.7c0-0.6-0.4-0.9-1.4-0.9c-1.1,0-1.3,0.7-1.3,1.1L266.6,175.6L266.6,175.6z M270.1,176.7
		c-0.2,0.1-0.4,0.2-1.6,0.4c-0.5,0.1-1.2,0.2-1.2,0.9c0,0.6,0.3,1,1,1c0.9,0,1.8-0.6,1.8-1.4L270.1,176.7"/>
	<path class="st3" d="M273.7,179.6h-1v-7.9h1V179.6"/>
	<path class="st3" d="M281.5,175.5c0-0.4-0.1-1-1.4-1c-0.3,0-1.1,0.1-1.1,0.8c0,0.5,0.3,0.6,1,0.8l1,0.2c1.2,0.3,1.6,0.7,1.6,1.5
		c0,1.2-1,1.9-2.3,1.9c-2.3,0-2.4-1.3-2.5-2h0.9c0,0.5,0.2,1.2,1.5,1.2c0.7,0,1.3-0.3,1.3-0.9c0-0.5-0.3-0.6-1.1-0.8l-1.1-0.3
		c-0.8-0.2-1.3-0.6-1.3-1.4c0-1.3,1-1.8,2.2-1.8c2.1,0,2.2,1.5,2.2,1.8H281.5"/>
	<path class="st3" d="M283.6,173.9h0.9v0.8c0.2-0.3,0.7-1,1.7-1c1.5,0,2.4,1.3,2.4,2.9c0,1.4-0.6,3.2-2.5,3.2
		c-0.8,0-1.3-0.4-1.5-0.8v2.9h-1V173.9 M286.1,179c1.1,0,1.6-1,1.6-2.2c0-0.7-0.1-2.2-1.6-2.2c-1.4,0-1.6,1.5-1.6,2.4
		C284.6,178.6,285.5,179,286.1,179"/>
	<path class="st3" d="M289.8,175.6c0-1.4,1-1.9,2.4-1.9c0.5,0,2.1,0.1,2.1,1.6v3.3c0,0.2,0.1,0.3,0.3,0.3c0.1,0,0.2,0,0.3,0v0.7
		c-0.2,0-0.3,0.1-0.5,0.1c-0.9,0-1-0.4-1-0.9c-0.4,0.4-1,0.9-2.1,0.9s-1.8-0.7-1.8-1.7c0-0.5,0.1-1.6,1.7-1.8l1.6-0.2
		c0.2,0,0.5-0.1,0.5-0.7c0-0.6-0.4-0.9-1.4-0.9c-1.1,0-1.3,0.7-1.3,1.1L289.8,175.6L289.8,175.6z M293.3,176.7
		c-0.2,0.1-0.4,0.2-1.6,0.4c-0.5,0.1-1.2,0.2-1.2,0.9c0,0.6,0.3,1,1,1c0.9,0,1.8-0.6,1.8-1.4L293.3,176.7"/>
	<path class="st3" d="M299.5,175.8c-0.1-0.8-0.5-1.2-1.4-1.2c-1.2,0-1.6,1.1-1.6,2.2c0,1,0.2,2.2,1.6,2.2c0.6,0,1.2-0.5,1.4-1.4h0.9
		c-0.1,0.9-0.7,2.2-2.3,2.2c-1.6,0-2.6-1.2-2.6-2.9c0-1.8,0.9-3.2,2.8-3.2c1.5,0,2.1,1.1,2.2,2.1L299.5,175.8"/>
	<path class="st3" d="M306.3,177.8c0,0.3-0.3,1.1-1,1.6c-0.3,0.2-0.6,0.4-1.6,0.4c-1.6,0-2.6-1.2-2.6-2.9c0-1.8,0.9-3.2,2.8-3.2
		c1.7,0,2.5,1.3,2.5,3.4h-4.2c0,1.2,0.6,1.9,1.7,1.9c0.9,0,1.5-0.7,1.5-1.1L306.3,177.8L306.3,177.8z M305.4,176.3
		c-0.1-0.9-0.4-1.7-1.6-1.7c-0.9,0-1.6,0.8-1.6,1.7H305.4"/>
</g>
<g>
	<path class="st4" d="M220.3,188.4H337v2H220.3V188.4z"/>
	<path class="st4" d="M220.3,197.3H337v2H220.3V197.3z"/>
	<path class="st4" d="M220.3,206.3h94.2v2h-94.2V206.3z"/>
</g>
<path class="st2" d="M211.8,223.8h143.3V283H211.8V223.8z"/>
<g>
	<path class="st3" d="M220,233.7h3.5c1.5,0,2.2,0.9,2.2,2c0,0.5-0.2,1.2-1.1,1.7c0.5,0.2,1.4,0.6,1.4,1.9c0,1.3-0.9,2.3-2.7,2.3H220
		L220,233.7 M221,237.1h1.9c1,0,1.7-0.3,1.7-1.3c0-0.7-0.5-1.2-1.6-1.2h-2L221,237.1 M221,240.7h2.3c1.1,0,1.7-0.6,1.7-1.4
		c0-1.1-1-1.3-1.8-1.3H221V240.7"/>
	<path class="st3" d="M229.5,235.7c1.8,0,2.7,1.6,2.7,3c0,1.5-0.8,3-2.7,3c-1.8,0-2.7-1.6-2.7-3
		C226.9,237.3,227.7,235.7,229.5,235.7 M229.5,240.9c1.4,0,1.7-1.4,1.7-2.2s-0.3-2.2-1.7-2.2s-1.7,1.4-1.7,2.2
		C227.9,239.5,228.1,240.9,229.5,240.9"/>
	<path class="st3" d="M235.7,235.7c1.8,0,2.7,1.6,2.7,3c0,1.5-0.8,3-2.7,3c-1.8,0-2.7-1.6-2.7-3S233.8,235.7,235.7,235.7
		 M235.7,240.9c1.4,0,1.7-1.4,1.7-2.2s-0.3-2.2-1.7-2.2s-1.7,1.4-1.7,2.2S234.3,240.9,235.7,240.9"/>
	<path class="st3" d="M244.2,241.6H243l-1.8-2.9l-0.8,0.7v2.2h-0.9v-7.9h0.9v4.6l2.5-2.4h1.2l-2.2,2.1L244.2,241.6"/>
	<path class="st3" d="M252.8,241.2c0,0.8,0,2.9-2.7,2.9c-0.7,0-2-0.2-2.2-1.7h1c0.2,0.9,1.1,0.9,1.3,0.9c1.7,0,1.6-1.3,1.6-2V241
		c-0.3,0.4-0.8,0.8-1.5,0.8c-2,0-2.5-1.8-2.5-3.2c0-1.6,0.9-2.9,2.4-2.9c1,0,1.5,0.6,1.7,1v-0.8h0.9V241.2 M250.3,241
		c0.6,0,1.6-0.4,1.6-1.9c0-0.9-0.2-2.4-1.6-2.4c-1.5,0-1.6,1.4-1.6,2.2C248.7,240,249.2,241,250.3,241"/>
	<path class="st3" d="M255.1,241.6h-1v-5.8h0.9v1c0.4-0.7,0.9-1.1,1.6-1.1c0.1,0,0.2,0,0.3,0v1h-0.4c-0.9,0-1.5,0.7-1.5,1.5v3.4
		L255.1,241.6z"/>
	<path class="st3" d="M259.8,235.7c1.8,0,2.7,1.6,2.7,3c0,1.5-0.8,3-2.7,3c-1.8,0-2.7-1.6-2.7-3S257.9,235.7,259.8,235.7
		 M259.8,240.9c1.4,0,1.7-1.4,1.7-2.2s-0.3-2.2-1.7-2.2c-1.4,0-1.7,1.4-1.7,2.2S258.4,240.9,259.8,240.9"/>
	<path class="st3" d="M267.3,241.6v-0.8c-0.4,0.7-0.9,1-1.8,1c-0.8,0-1.9-0.4-1.9-1.8v-4.1h1v3.8c0,0.9,0.5,1.3,1.1,1.3
		c1.2,0,1.6-1.1,1.6-1.9v-3.2h1v5.8h-1L267.3,241.6z"/>
	<path class="st3" d="M269.6,235.9h0.9v0.8c0.2-0.3,0.7-1,1.7-1c1.5,0,2.4,1.3,2.4,2.9c0,1.4-0.6,3.2-2.5,3.2
		c-0.8,0-1.3-0.4-1.5-0.8v2.9h-1V235.9 M272.1,241c1.1,0,1.6-1,1.6-2.2c0-0.7-0.1-2.2-1.6-2.2c-1.4,0-1.6,1.5-1.6,2.4
		C270.5,240.6,271.5,241,272.1,241"/>
	<path class="st3" d="M280,236.7v3.7c0,0.5,0.4,0.5,0.6,0.5h0.3v0.8c-0.4,0-0.6,0.1-0.7,0.1c-1,0-1.2-0.5-1.2-1.2v-3.8h-0.8V236h0.8
		v-1.6h1v1.6h0.9v0.8H280L280,236.7z"/>
	<path class="st3" d="M281.9,234.8v-1.1h1v1.1H281.9 M282.9,241.6h-1v-5.8h1V241.6"/>
	<path class="st3" d="M287.9,237.8c-0.1-0.8-0.5-1.2-1.4-1.2c-1.2,0-1.6,1.1-1.6,2.2c0,1,0.2,2.2,1.6,2.2c0.6,0,1.2-0.5,1.4-1.4h0.9
		c-0.1,0.9-0.7,2.2-2.3,2.2c-1.6,0-2.6-1.2-2.6-2.9c0-1.8,0.9-3.2,2.8-3.2c1.5,0,2.1,1.1,2.2,2.1L287.9,237.8"/>
	<path class="st3" d="M294.4,241.6h-1.2l-1.8-2.9l-0.8,0.7v2.2h-0.9v-7.9h0.9v4.6l2.5-2.4h1.2l-2.2,2.1L294.4,241.6"/>
	<path class="st3" d="M299.8,239.8c0,0.3-0.3,1.1-1,1.6c-0.3,0.2-0.6,0.4-1.6,0.4c-1.6,0-2.6-1.2-2.6-2.9c0-1.8,0.9-3.2,2.8-3.2
		c1.7,0,2.5,1.3,2.5,3.4h-4.2c0,1.2,0.6,1.9,1.7,1.9c0.9,0,1.5-0.7,1.5-1.1L299.8,239.8L299.8,239.8z M298.9,238.3
		c-0.1-0.9-0.4-1.7-1.6-1.7c-0.9,0-1.6,0.8-1.6,1.7H298.9"/>
	<path class="st3" d="M302.2,236.7v3.7c0,0.5,0.4,0.5,0.6,0.5h0.3v0.8c-0.4,0-0.6,0.1-0.7,0.1c-1,0-1.2-0.5-1.2-1.2v-3.8h-0.8V236
		h0.8v-1.6h1v1.6h0.9v0.8h-0.9L302.2,236.7z"/>
	<path class="st3" d="M307.3,237.5c0-0.4-0.1-1-1.4-1c-0.3,0-1.1,0.1-1.1,0.8c0,0.5,0.3,0.6,1,0.8l1,0.2c1.2,0.3,1.6,0.7,1.6,1.5
		c0,1.2-1,1.9-2.3,1.9c-2.3,0-2.4-1.3-2.5-2h0.9c0,0.5,0.2,1.2,1.5,1.2c0.7,0,1.3-0.3,1.3-0.9c0-0.5-0.3-0.6-1.1-0.8l-1.1-0.3
		c-0.8-0.2-1.3-0.6-1.3-1.4c0-1.3,1-1.8,2.2-1.8c2.1,0,2.2,1.5,2.2,1.8H307.3"/>
</g>
<g>
	<path class="st4" d="M220.3,250.4H337v2H220.3V250.4z"/>
	<path class="st4" d="M220.3,259.3H337v2H220.3V259.3z"/>
	<path class="st4" d="M220.3,268.3h94.2v2h-94.2V268.3z"/>
</g>
<path class="st6" d="M379.1,35.6h148.7v272.1H379.1L379.1,35.6z"/>
<g>
	<path class="st1" d="M382.8,23.1h-2v-9.3h4.3c1.8,0,2.9,1.2,2.9,3c0,0.8-0.5,3-3,3h-2.2L382.8,23.1 M384.6,18.1
		c1.5,0,1.5-1,1.5-1.5c0-0.9-0.5-1.3-1.7-1.3h-1.5V18h1.7V18.1z"/>
	<path class="st1" d="M389.1,16.2h1.7v1.2c0.4-0.7,0.8-1.4,1.9-1.4c0.1,0,0.2,0,0.4,0v1.8c-0.2,0-0.4,0-0.5,0
		c-1.4,0-1.7,0.9-1.7,1.7v3.6h-1.8V16.2"/>
	<path class="st1" d="M397,23.3c-1.9,0-3.5-1.1-3.5-3.6s1.7-3.6,3.5-3.6c1.9,0,3.5,1.1,3.5,3.6S398.9,23.3,397,23.3 M397,17.5
		c-1.4,0-1.7,1.2-1.7,2.1s0.3,2.1,1.7,2.1c1.4,0,1.7-1.2,1.7-2.1S398.4,17.5,397,17.5"/>
	<path class="st1" d="M411.7,23.1h-1.8v-4.2c0-1-0.5-1.4-1-1.4c-0.9,0-1.2,0.6-1.2,1.4V23h-1.8v-4.2c0-0.6,0-1.4-1.1-1.4
		c-0.9,0-1.1,0.6-1.1,1.4V23h-1.8v-6.9h1.7v1c0.2-0.5,0.7-1.2,2-1.2c1,0,1.5,0.4,1.9,1.1c0.2-0.3,0.7-1.1,1.8-1.1
		c1.4,0,2.4,0.8,2.4,2.3V23.1"/>
	<path class="st1" d="M416.5,23.3c-1.9,0-3.5-1.1-3.5-3.6s1.7-3.6,3.5-3.6c1.9,0,3.5,1.1,3.5,3.6S418.4,23.3,416.5,23.3 M416.5,17.5
		c-1.4,0-1.7,1.2-1.7,2.1s0.3,2.1,1.7,2.1c1.4,0,1.7-1.2,1.7-2.1S417.9,17.5,416.5,17.5"/>
	<path class="st1" d="M425.3,18.3c-0.1-0.4-0.2-0.9-1.2-0.9s-1.1,0.4-1.1,0.7c0,1.1,4.3,0.3,4.3,2.8c0,2-2,2.4-3,2.4
		c-1.6,0-3.3-0.5-3.3-2.4h1.9c0,0.6,0.4,1,1.5,1c0.9,0,1.2-0.5,1.2-0.7c0-1.2-4.3-0.3-4.3-2.9c0-1,0.6-2.3,2.8-2.3
		c1.4,0,3,0.3,3.1,2.3H425.3"/>
	<path class="st1" d="M437.8,21.7c0,0.8,0.2,1,0.4,1.1v0.3h-2c-0.1-0.3-0.1-0.4-0.2-0.8c-0.4,0.4-1,1-2.2,1c-1,0-2.1-0.6-2.1-2
		s0.9-2,2-2.2l1.6-0.2c0.3,0,0.6-0.2,0.6-0.5c0-0.8-0.7-0.8-1.2-0.8c-0.9,0-1.1,0.6-1.1,1h-1.8c0.2-2.1,1.7-2.4,3.1-2.4
		c1,0,2.8,0.3,2.8,2v3.5H437.8z M436,19.7c-0.2,0.1-0.5,0.3-1.2,0.4s-1.2,0.3-1.2,1c0,0.6,0.5,0.8,0.8,0.8c0.8,0,1.6-0.5,1.6-1.4
		L436,19.7"/>
	<path class="st1" d="M445.7,23.1h-1.8v-4.2c0-0.5,0-1.4-1.2-1.4c-0.8,0-1.4,0.5-1.4,1.6v4h-1.8v-6.9h1.7v1c0.2-0.4,0.8-1.2,2.1-1.2
		c1.4,0,2.4,0.8,2.4,2.3L445.7,23.1"/>
	<path class="st1" d="M453.7,23.1h-1.8v-0.9c-0.4,0.8-1.2,1.1-2,1.1c-2.1,0-2.9-1.8-2.9-3.7c0-2.4,1.4-3.6,2.9-3.6
		c1.2,0,1.7,0.6,2,1.1v-3.3h1.8V23.1 M450.3,21.8c1.2,0,1.6-1,1.6-2c0-1.1-0.3-2.2-1.6-2.2c-1.2,0-1.5,1-1.5,2.1
		C448.8,20.5,449.2,21.8,450.3,21.8"/>
	<path class="st1" d="M462.1,23.3c-1.9,0-3.5-1.1-3.5-3.6s1.7-3.6,3.5-3.6c1.9,0,3.5,1.1,3.5,3.6S463.9,23.3,462.1,23.3 M462.1,17.5
		c-1.4,0-1.7,1.2-1.7,2.1s0.3,2.1,1.7,2.1c1.4,0,1.7-1.2,1.7-2.1S463.5,17.5,462.1,17.5"/>
	<path class="st1" d="M469,23.1h-1.8v-5.6h-1v-1.3h1v-0.6c0-1.4,0.8-2,2-2c0.5,0,0.8,0,0.9,0v1.5h-0.5c-0.6,0-0.6,0.2-0.6,0.8v0.3
		h1.2v1.3H469V23.1"/>
	<path class="st1" d="M472.6,23.1h-1.8v-5.6h-1v-1.3h1v-0.6c0-1.4,0.8-2,2-2c0.5,0,0.8,0,0.9,0v1.5h-0.5c-0.6,0-0.6,0.2-0.6,0.8v0.3
		h1.2v1.3h-1.2V23.1"/>
	<path class="st1" d="M480.7,21.1c-0.5,1.7-1.9,2.2-3,2.2c-2,0-3.4-0.9-3.4-3.8c0-0.8,0.3-3.5,3.3-3.5c1.4,0,3.2,0.7,3.2,3.8v0.3
		H476c0.1,0.5,0.2,1.7,1.6,1.7c0.5,0,1-0.3,1.2-0.8L480.7,21.1L480.7,21.1z M478.9,18.9c-0.1-1.1-0.8-1.5-1.4-1.5
		c-0.9,0-1.3,0.5-1.4,1.5H478.9"/>
	<path class="st1" d="M482,16.2h1.7v1.2c0.4-0.7,0.8-1.4,1.9-1.4c0.1,0,0.2,0,0.4,0v1.8c-0.2,0-0.4,0-0.5,0c-1.4,0-1.7,0.9-1.7,1.7
		v3.6H482V16.2"/>
	<path class="st1" d="M490.7,18.3c-0.1-0.4-0.2-0.9-1.2-0.9s-1.1,0.4-1.1,0.7c0,1.1,4.3,0.3,4.3,2.8c0,2-2,2.4-3,2.4
		c-1.6,0-3.3-0.5-3.3-2.4h1.9c0,0.6,0.4,1,1.5,1c0.9,0,1.2-0.5,1.2-0.7c0-1.2-4.3-0.3-4.3-2.9c0-1,0.6-2.3,2.8-2.3
		c1.4,0,3,0.3,3.1,2.3H490.7"/>
</g>
<path class="st2" d="M381.8,37.8h143.3V97H381.8V37.8z"/>
<g>
	<path class="st3" d="M391.2,55.6h-1.1v-7.9h3.6c1.5,0,2.3,0.9,2.3,2.2c0,1.1-0.6,2.3-2.3,2.3h-2.5V55.6 M391.2,51.4h2.1
		c1,0,1.6-0.4,1.6-1.4s-0.7-1.3-1.6-1.3h-2.2v2.7H391.2z"/>
	<path class="st3" d="M401.5,53.8c0,0.3-0.3,1.1-1,1.6c-0.3,0.2-0.6,0.4-1.6,0.4c-1.6,0-2.6-1.2-2.6-2.9c0-1.8,0.9-3.2,2.8-3.2
		c1.7,0,2.5,1.3,2.5,3.4h-4.2c0,1.2,0.6,1.9,1.7,1.9c0.9,0,1.5-0.7,1.5-1.1h0.9L401.5,53.8z M400.6,52.3c-0.1-0.9-0.4-1.7-1.6-1.7
		c-0.9,0-1.6,0.8-1.6,1.7H400.6"/>
	<path class="st3" d="M403.9,55.6h-1v-5.8h0.9v1c0.4-0.7,0.9-1.1,1.6-1.1c0.1,0,0.2,0,0.3,0v1h-0.4c-0.9,0-1.5,0.7-1.5,1.5v3.4
		L403.9,55.6z"/>
	<path class="st3" d="M409.8,51.8c-0.1-0.8-0.5-1.2-1.4-1.2c-1.2,0-1.6,1.1-1.6,2.2c0,1,0.2,2.2,1.6,2.2c0.6,0,1.2-0.5,1.4-1.4h0.9
		c-0.1,0.9-0.7,2.2-2.3,2.2c-1.6,0-2.6-1.2-2.6-2.9c0-1.8,0.9-3.2,2.8-3.2c1.5,0,2.1,1.1,2.2,2.1L409.8,51.8"/>
	<path class="st3" d="M416.6,53.8c0,0.3-0.3,1.1-1,1.6c-0.3,0.2-0.6,0.4-1.6,0.4c-1.6,0-2.6-1.2-2.6-2.9c0-1.8,0.9-3.2,2.8-3.2
		c1.7,0,2.5,1.3,2.5,3.4h-4.2c0,1.2,0.6,1.9,1.7,1.9c0.9,0,1.5-0.7,1.5-1.1h0.9L416.6,53.8z M415.7,52.3c-0.1-0.9-0.4-1.7-1.6-1.7
		c-0.9,0-1.6,0.8-1.6,1.7H415.7"/>
	<path class="st3" d="M422.5,55.6h-1v-3.5c0-1-0.3-1.5-1.2-1.5c-0.5,0-1.5,0.4-1.5,1.9v3.1h-1v-5.8h0.9v0.8c0.2-0.3,0.7-1,1.7-1
		c0.9,0,2,0.4,2,2v4H422.5z"/>
	<path class="st3" d="M425.1,50.7v3.7c0,0.5,0.4,0.5,0.6,0.5h0.3v0.8c-0.4,0-0.6,0.1-0.7,0.1c-1,0-1.2-0.5-1.2-1.2v-3.8h-0.8V50h0.8
		v-1.6h1V50h0.9v0.8L425.1,50.7L425.1,50.7z"/>
	<path class="st3" d="M426.8,51.6c0-1.4,1-1.9,2.4-1.9c0.5,0,2.1,0.1,2.1,1.6v3.3c0,0.2,0.1,0.3,0.3,0.3c0.1,0,0.2,0,0.3,0v0.7
		c-0.2,0-0.3,0.1-0.5,0.1c-0.9,0-1-0.4-1-0.9c-0.4,0.4-1,0.9-2.1,0.9s-1.8-0.7-1.8-1.7c0-0.5,0.1-1.6,1.7-1.8l1.6-0.2
		c0.2,0,0.5-0.1,0.5-0.7c0-0.6-0.4-0.9-1.4-0.9c-1.1,0-1.3,0.7-1.3,1.1h-0.8L426.8,51.6z M430.4,52.7c-0.2,0.1-0.4,0.2-1.6,0.4
		c-0.5,0.1-1.2,0.2-1.2,0.9c0,0.6,0.3,1,1,1c0.9,0,1.8-0.6,1.8-1.4L430.4,52.7"/>
	<path class="st3" d="M437.8,55.2c0,0.8,0,2.9-2.7,2.9c-0.7,0-2-0.2-2.2-1.7h1c0.2,0.9,1.1,0.9,1.3,0.9c1.7,0,1.6-1.3,1.6-2V55
		c-0.3,0.4-0.8,0.8-1.5,0.8c-2,0-2.5-1.8-2.5-3.2c0-1.6,0.9-2.9,2.4-2.9c1,0,1.5,0.6,1.7,1v-0.8h0.9L437.8,55.2 M435.3,55
		c0.6,0,1.6-0.4,1.6-1.9c0-0.9-0.2-2.4-1.6-2.4c-1.5,0-1.6,1.4-1.6,2.2C433.7,54,434.2,55,435.3,55"/>
	<path class="st3" d="M444,53.8c0,0.3-0.3,1.1-1,1.6c-0.3,0.2-0.6,0.4-1.6,0.4c-1.6,0-2.6-1.2-2.6-2.9c0-1.8,0.9-3.2,2.8-3.2
		c1.7,0,2.5,1.3,2.5,3.4h-4.2c0,1.2,0.6,1.9,1.7,1.9c0.9,0,1.5-0.7,1.5-1.1h0.9L444,53.8z M443.1,52.3c-0.1-0.9-0.4-1.7-1.6-1.7
		c-0.9,0-1.6,0.8-1.6,1.7H443.1"/>
	<path class="st3" d="M453.1,55.6h-0.9v-0.8c-0.4,0.8-1.1,1-1.6,1c-2,0-2.5-1.8-2.5-3.2c0-1.6,0.9-2.9,2.4-2.9c1,0,1.5,0.6,1.7,1
		v-0.1v-2.9h1v7.9H453.1z M450.5,55c0.6,0,1.6-0.4,1.6-1.9c0-0.9-0.2-2.4-1.6-2.4c-1.5,0-1.6,1.4-1.6,2.2C449,54,449.5,55,450.5,55"
		/>
	<path class="st3" d="M454.4,48.8v-1.1h1v1.1H454.4 M455.4,55.6h-1v-5.8h1V55.6"/>
	<path class="st3" d="M460.1,51.5c0-0.4-0.1-1-1.4-1c-0.3,0-1.1,0.1-1.1,0.8c0,0.5,0.3,0.6,1,0.8l1,0.2c1.2,0.3,1.6,0.7,1.6,1.5
		c0,1.2-1,1.9-2.3,1.9c-2.3,0-2.4-1.3-2.5-2h0.9c0,0.5,0.2,1.2,1.5,1.2c0.7,0,1.3-0.3,1.3-0.9c0-0.5-0.3-0.6-1.1-0.8l-1.1-0.3
		c-0.8-0.2-1.3-0.6-1.3-1.4c0-1.3,1-1.8,2.2-1.8c2.1,0,2.2,1.5,2.2,1.8H460.1"/>
	<path class="st3" d="M465.9,51.8c-0.1-0.8-0.5-1.2-1.4-1.2c-1.2,0-1.6,1.1-1.6,2.2c0,1,0.2,2.2,1.6,2.2c0.6,0,1.2-0.5,1.4-1.4h0.9
		c-0.1,0.9-0.7,2.2-2.3,2.2c-1.6,0-2.6-1.2-2.6-2.9c0-1.8,0.9-3.2,2.8-3.2c1.5,0,2.1,1.1,2.2,2.1L465.9,51.8"/>
	<path class="st3" d="M470.2,49.7c1.8,0,2.7,1.6,2.7,3c0,1.5-0.8,3-2.7,3c-1.8,0-2.7-1.6-2.7-3S468.3,49.7,470.2,49.7 M470.2,55
		c1.4,0,1.7-1.4,1.7-2.2s-0.3-2.2-1.7-2.2c-1.4,0-1.7,1.4-1.7,2.2C468.5,53.5,468.8,55,470.2,55"/>
	<path class="st3" d="M477.7,55.6v-0.8c-0.4,0.7-0.9,1-1.8,1c-0.8,0-1.9-0.4-1.9-1.8v-4.1h1v3.8c0,0.9,0.5,1.3,1.1,1.3
		c1.2,0,1.6-1.1,1.6-1.9v-3.2h1v5.8L477.7,55.6L477.7,55.6z"/>
	<path class="st3" d="M484.8,55.6h-1v-3.5c0-1-0.3-1.5-1.2-1.5c-0.5,0-1.5,0.4-1.5,1.9v3.1h-1v-5.8h0.9v0.8c0.2-0.3,0.7-1,1.7-1
		c0.9,0,2,0.4,2,2v4H484.8z"/>
	<path class="st3" d="M487.4,50.7v3.7c0,0.5,0.4,0.5,0.6,0.5h0.3v0.8c-0.4,0-0.6,0.1-0.7,0.1c-1,0-1.2-0.5-1.2-1.2v-3.8h-0.8V50h0.8
		v-1.6h1V50h0.9v0.8L487.4,50.7L487.4,50.7z"/>
	<path class="st3" d="M492.5,51.5c0-0.4-0.1-1-1.4-1c-0.3,0-1.1,0.1-1.1,0.8c0,0.5,0.3,0.6,1,0.8l1,0.2c1.2,0.3,1.6,0.7,1.6,1.5
		c0,1.2-1,1.9-2.3,1.9c-2.3,0-2.4-1.3-2.5-2h0.9c0,0.5,0.2,1.2,1.5,1.2c0.7,0,1.3-0.3,1.3-0.9c0-0.5-0.3-0.6-1.1-0.8l-1.1-0.3
		c-0.8-0.2-1.3-0.6-1.3-1.4c0-1.3,1-1.8,2.2-1.8c2.1,0,2.2,1.5,2.2,1.8H492.5"/>
</g>
<g>
	<path class="st4" d="M390.3,64.4H507v2H390.3V64.4z"/>
	<path class="st4" d="M390.3,73.3H507v2H390.3V73.3z"/>
	<path class="st4" d="M390.3,82.3h94.2v2h-94.2V82.3z"/>
</g>
<path class="st2" d="M381.8,99.8h143.3V159H381.8V99.8z"/>
<g>
	<path class="st3" d="M395.5,112.1c-0.3-1.4-1.5-1.6-2.2-1.6c-1.4,0-2.6,1.1-2.6,3.1c0,1.9,0.7,3.3,2.6,3.3c0.7,0,1.9-0.3,2.3-2.2h1
		c-0.4,3-2.9,3.1-3.5,3.1c-1.8,0-3.6-1.2-3.6-4.2c0-2.4,1.4-4.1,3.7-4.1c2,0,3.1,1.3,3.2,2.6L395.5,112.1"/>
	<path class="st3" d="M400,111.7c1.8,0,2.7,1.6,2.7,3c0,1.5-0.8,3-2.7,3c-1.8,0-2.7-1.6-2.7-3S398.1,111.7,400,111.7 M400,117
		c1.4,0,1.7-1.4,1.7-2.2c0-0.8-0.3-2.2-1.7-2.2c-1.4,0-1.7,1.4-1.7,2.2C398.3,115.5,398.6,117,400,117"/>
	<path class="st3" d="M403.7,111.9h0.9v0.8c0.2-0.3,0.7-1,1.7-1s1.4,0.6,1.5,0.9c0.5-0.5,0.9-0.9,1.8-0.9c0.6,0,1.8,0.3,1.8,1.9v4
		h-1v-3.7c0-0.8-0.2-1.3-1.1-1.3c-0.8,0-1.4,0.8-1.4,1.5v3.5h-1v-4c0-0.5-0.2-1.1-0.9-1.1c-0.5,0-1.5,0.4-1.5,1.9v3.1h-1v-5.6
		L403.7,111.9z"/>
	<path class="st3" d="M412.8,111.9h0.9v0.8c0.2-0.3,0.7-1,1.7-1c1.5,0,2.4,1.3,2.4,2.9c0,1.4-0.6,3.2-2.5,3.2
		c-0.8,0-1.3-0.4-1.5-0.8v2.9h-1V111.9 M415.3,117c1.1,0,1.6-1,1.6-2.2c0-0.7-0.1-2.2-1.6-2.2c-1.4,0-1.6,1.5-1.6,2.4
		C413.8,116.6,414.7,117,415.3,117"/>
	<path class="st3" d="M419,113.6c0-1.4,1-1.9,2.4-1.9c0.5,0,2.1,0.1,2.1,1.6v3.3c0,0.2,0.1,0.3,0.3,0.3c0.1,0,0.2,0,0.3,0v0.7
		c-0.2,0-0.3,0.1-0.5,0.1c-0.9,0-1-0.4-1-0.9c-0.4,0.4-1,0.9-2.1,0.9s-1.8-0.7-1.8-1.7c0-0.5,0.1-1.6,1.7-1.8l1.6-0.2
		c0.2,0,0.5-0.1,0.5-0.7s-0.4-0.9-1.4-0.9c-1.1,0-1.3,0.7-1.3,1.1L419,113.6L419,113.6z M422.5,114.7c-0.2,0.1-0.4,0.2-1.6,0.4
		c-0.5,0.1-1.2,0.2-1.2,0.9c0,0.6,0.3,1,1,1c0.9,0,1.8-0.6,1.8-1.4L422.5,114.7"/>
	<path class="st3" d="M429.8,117.6h-1v-3.5c0-1-0.3-1.5-1.2-1.5c-0.5,0-1.5,0.4-1.5,1.9v3.1h-1v-5.8h0.9v0.8c0.2-0.3,0.7-1,1.7-1
		c0.9,0,2,0.4,2,2v4H429.8z"/>
	<path class="st3" d="M431.3,110.8v-1.1h1v1.1H431.3 M432.2,117.6h-1v-5.8h1V117.6"/>
	<path class="st3" d="M436,111.7c1.8,0,2.7,1.6,2.7,3c0,1.5-0.8,3-2.7,3c-1.8,0-2.7-1.6-2.7-3C433.4,113.3,434.2,111.7,436,111.7
		 M436,117c1.4,0,1.7-1.4,1.7-2.2c0-0.8-0.3-2.2-1.7-2.2c-1.4,0-1.7,1.4-1.7,2.2C434.4,115.5,434.7,117,436,117"/>
	<path class="st3" d="M444.5,117.6h-1v-3.5c0-1-0.3-1.5-1.2-1.5c-0.5,0-1.5,0.4-1.5,1.9v3.1h-1v-5.8h0.9v0.8c0.2-0.3,0.7-1,1.7-1
		c0.9,0,2,0.4,2,2v4H444.5z"/>
	<path class="st3" d="M450.2,112.7v5h-1v-5h-0.8v-0.8h0.8v-1c0-0.9,0.5-1.3,1.5-1.3c0.1,0,0.3,0,0.4,0v0.9c-0.1,0-0.3,0-0.4,0
		c-0.4,0-0.6,0.2-0.6,0.7v0.7h1v0.8L450.2,112.7 M453,117.6h-1v-7.9h1V117.6"/>
	<path class="st3" d="M454.3,110.8v-1.1h1v1.1H454.3 M455.3,117.6h-1v-5.8h1V117.6"/>
	<path class="st3" d="M461.7,115.8c0,0.3-0.3,1.1-1,1.6c-0.3,0.2-0.6,0.4-1.6,0.4c-1.6,0-2.6-1.2-2.6-2.9c0-1.8,0.9-3.2,2.8-3.2
		c1.7,0,2.5,1.3,2.5,3.4h-4.2c0,1.2,0.6,1.9,1.7,1.9c0.9,0,1.5-0.7,1.5-1.1h0.9L461.7,115.8z M460.7,114.3c-0.1-0.9-0.4-1.7-1.6-1.7
		c-0.9,0-1.6,0.8-1.6,1.7H460.7"/>
	<path class="st3" d="M466.1,113.5c0-0.4-0.1-1-1.4-1c-0.3,0-1.1,0.1-1.1,0.8c0,0.5,0.3,0.6,1,0.8l1,0.2c1.2,0.3,1.6,0.7,1.6,1.5
		c0,1.2-1,1.9-2.3,1.9c-2.3,0-2.4-1.3-2.5-2h0.9c0,0.5,0.2,1.2,1.5,1.2c0.7,0,1.3-0.3,1.3-0.9c0-0.5-0.3-0.6-1.1-0.8l-1.1-0.3
		c-0.8-0.2-1.3-0.6-1.3-1.4c0-1.3,1-1.8,2.2-1.8c2.1,0,2.2,1.5,2.2,1.8L466.1,113.5"/>
	<path class="st3" d="M472.6,112.7v5h-1v-5h-0.8v-0.8h0.8v-1c0-0.9,0.5-1.3,1.5-1.3c0.1,0,0.3,0,0.4,0v0.9c-0.1,0-0.3,0-0.4,0
		c-0.4,0-0.6,0.2-0.6,0.7v0.7h1v0.8L472.6,112.7"/>
	<path class="st3" d="M475.6,117.6h-1v-5.8h0.9v1c0.4-0.7,0.9-1.1,1.6-1.1c0.1,0,0.2,0,0.3,0v1H477c-0.9,0-1.5,0.7-1.5,1.5v3.4
		H475.6z"/>
	<path class="st3" d="M482.8,115.8c0,0.3-0.3,1.1-1,1.6c-0.3,0.2-0.6,0.4-1.6,0.4c-1.6,0-2.6-1.2-2.6-2.9c0-1.8,0.9-3.2,2.8-3.2
		c1.7,0,2.5,1.3,2.5,3.4h-4.2c0,1.2,0.6,1.9,1.7,1.9c0.9,0,1.5-0.7,1.5-1.1h0.9L482.8,115.8z M481.9,114.3c-0.1-0.9-0.4-1.7-1.6-1.7
		c-0.9,0-1.6,0.8-1.6,1.7H481.9"/>
	<path class="st3" d="M488.9,115.8c0,0.3-0.3,1.1-1,1.6c-0.3,0.2-0.6,0.4-1.6,0.4c-1.6,0-2.6-1.2-2.6-2.9c0-1.8,0.9-3.2,2.8-3.2
		c1.7,0,2.5,1.3,2.5,3.4h-4.2c0,1.2,0.6,1.9,1.7,1.9c0.9,0,1.5-0.7,1.5-1.1h0.9L488.9,115.8z M488,114.3c-0.1-0.9-0.4-1.7-1.6-1.7
		c-0.9,0-1.6,0.8-1.6,1.7H488"/>
</g>
<g>
	<path class="st4" d="M390.3,126.4H507v2H390.3V126.4z"/>
	<path class="st4" d="M390.3,135.3H507v2H390.3V135.3z"/>
	<path class="st4" d="M390.3,144.3h94.2v2h-94.2V144.3z"/>
</g>
<path class="st2" d="M381.8,161.8h143.3V221H381.8V161.8z"/>
<g>
	<path class="st3" d="M395.5,174.1c-0.3-1.4-1.5-1.6-2.2-1.6c-1.4,0-2.6,1.1-2.6,3.1c0,1.9,0.7,3.3,2.6,3.3c0.7,0,1.9-0.3,2.3-2.2h1
		c-0.4,3-2.9,3.1-3.5,3.1c-1.8,0-3.6-1.2-3.6-4.2c0-2.4,1.4-4.1,3.7-4.1c2,0,3.1,1.3,3.2,2.6L395.5,174.1"/>
	<path class="st3" d="M401.5,179.6v-0.8c-0.4,0.7-0.9,1-1.8,1c-0.8,0-1.9-0.4-1.9-1.8v-4.1h1v3.8c0,0.9,0.5,1.3,1.1,1.3
		c1.2,0,1.6-1.1,1.6-1.9v-3.2h1v5.8h-1L401.5,179.6z"/>
	<path class="st3" d="M407.2,175.5c0-0.4-0.1-1-1.4-1c-0.3,0-1.1,0.1-1.1,0.8c0,0.5,0.3,0.6,1,0.8l1,0.2c1.2,0.3,1.6,0.7,1.6,1.5
		c0,1.2-1,1.9-2.3,1.9c-2.3,0-2.4-1.3-2.5-2h0.9c0,0.5,0.2,1.2,1.5,1.2c0.7,0,1.3-0.3,1.3-0.9c0-0.5-0.3-0.6-1.1-0.8l-1.1-0.3
		c-0.8-0.2-1.3-0.6-1.3-1.4c0-1.3,1-1.8,2.2-1.8c2.1,0,2.2,1.5,2.2,1.8H407.2"/>
	<path class="st3" d="M410.6,174.7v3.7c0,0.5,0.4,0.5,0.6,0.5h0.3v0.8c-0.4,0-0.6,0.1-0.7,0.1c-1,0-1.2-0.5-1.2-1.2v-3.8h-0.8V174
		h0.8v-1.6h1v1.6h0.9v0.8h-0.9L410.6,174.7z"/>
	<path class="st3" d="M414.6,173.7c1.8,0,2.7,1.6,2.7,3c0,1.5-0.8,3-2.7,3c-1.8,0-2.7-1.6-2.7-3S412.8,173.7,414.6,173.7
		 M414.6,178.9c1.4,0,1.7-1.4,1.7-2.2s-0.3-2.2-1.7-2.2c-1.4,0-1.7,1.4-1.7,2.2S413.2,178.9,414.6,178.9"/>
	<path class="st3" d="M418.4,173.9h0.9v0.8c0.2-0.3,0.7-1,1.7-1s1.4,0.6,1.5,0.9c0.5-0.5,0.9-0.9,1.8-0.9c0.6,0,1.8,0.3,1.8,1.9v4
		h-1v-3.7c0-0.8-0.2-1.3-1.1-1.3c-0.8,0-1.4,0.8-1.4,1.5v3.5h-1v-4c0-0.5-0.2-1.1-0.9-1.1c-0.5,0-1.5,0.4-1.5,1.9v3.1h-1v-5.6
		L418.4,173.9z"/>
	<path class="st3" d="M432.4,177.8c0,0.3-0.3,1.1-1,1.6c-0.3,0.2-0.6,0.4-1.6,0.4c-1.6,0-2.6-1.2-2.6-2.9c0-1.8,0.9-3.2,2.8-3.2
		c1.7,0,2.5,1.3,2.5,3.4h-4.2c0,1.2,0.6,1.9,1.7,1.9c0.9,0,1.5-0.7,1.5-1.1L432.4,177.8L432.4,177.8z M431.5,176.3
		c-0.1-0.9-0.4-1.7-1.6-1.7c-0.9,0-1.6,0.8-1.6,1.7H431.5"/>
	<path class="st3" d="M434.7,179.6h-1v-5.8h0.9v1c0.4-0.7,0.9-1.1,1.6-1.1c0.1,0,0.2,0,0.3,0v1h-0.4c-0.9,0-1.5,0.7-1.5,1.5v3.4
		L434.7,179.6z"/>
	<path class="st3" d="M441.4,179.6h-1v-7.9h1V179.6"/>
	<path class="st3" d="M445.2,173.7c1.8,0,2.7,1.6,2.7,3c0,1.5-0.8,3-2.7,3c-1.8,0-2.7-1.6-2.7-3S443.3,173.7,445.2,173.7
		 M445.2,178.9c1.4,0,1.7-1.4,1.7-2.2s-0.3-2.2-1.7-2.2c-1.4,0-1.7,1.4-1.7,2.2S443.8,178.9,445.2,178.9"/>
	<path class="st3" d="M452.2,173.9h1.1c-0.7,1.9-1.3,3.8-2.1,5.6c-0.9,2.3-1,2.5-2.3,2.5c-0.1,0-0.3,0-0.4-0.1V181
		c0.1,0,0.3,0.1,0.6,0.1c0.5,0,0.6-0.1,1-1.3l-2.1-5.9h1.1l1.5,4.7L452.2,173.9"/>
	<path class="st3" d="M453.8,175.6c0-1.4,1-1.9,2.4-1.9c0.5,0,2.1,0.1,2.1,1.6v3.3c0,0.2,0.1,0.3,0.3,0.3c0.1,0,0.2,0,0.3,0v0.7
		c-0.2,0-0.3,0.1-0.5,0.1c-0.9,0-1-0.4-1-0.9c-0.4,0.4-1,0.9-2.1,0.9s-1.8-0.7-1.8-1.7c0-0.5,0.1-1.6,1.7-1.8l1.6-0.2
		c0.2,0,0.5-0.1,0.5-0.7c0-0.6-0.4-0.9-1.4-0.9c-1.1,0-1.3,0.7-1.3,1.1L453.8,175.6L453.8,175.6z M457.4,176.7
		c-0.2,0.1-0.4,0.2-1.6,0.4c-0.5,0.1-1.2,0.2-1.2,0.9c0,0.6,0.3,1,1,1c0.9,0,1.8-0.6,1.8-1.4L457.4,176.7"/>
	<path class="st3" d="M461,179.6h-1v-7.9h1V179.6"/>
	<path class="st3" d="M463.6,174.7v3.7c0,0.5,0.4,0.5,0.6,0.5h0.3v0.8c-0.4,0-0.6,0.1-0.7,0.1c-1,0-1.2-0.5-1.2-1.2v-3.8h-0.8V174
		h0.8v-1.6h1v1.6h0.9v0.8h-0.9L463.6,174.7z"/>
	<path class="st3" d="M469.3,173.9h1.1c-0.7,1.9-1.3,3.8-2.1,5.6c-0.9,2.3-1,2.5-2.3,2.5c-0.1,0-0.3,0-0.4-0.1V181
		c0.1,0,0.3,0.1,0.6,0.1c0.5,0,0.6-0.1,1-1.3l-2.1-5.9h1.1l1.5,4.7L469.3,173.9"/>
</g>
<g>
	<path class="st4" d="M390.3,188.4H507v2H390.3V188.4z"/>
	<path class="st4" d="M390.3,197.3H507v2H390.3V197.3z"/>
	<path class="st4" d="M390.3,206.3h94.2v2h-94.2V206.3z"/>
</g>
<path class="st2" d="M381.8,223.8h143.3V283H381.8V223.8z"/>
<g>
	<path class="st3" d="M391.2,241.6h-1.1v-7.9h5.5v0.9h-4.4v2.4h3.9v0.9h-3.9V241.6"/>
	<path class="st3" d="M396,237.6c0-1.4,1-1.9,2.4-1.9c0.5,0,2.1,0.1,2.1,1.6v3.3c0,0.2,0.1,0.3,0.3,0.3c0.1,0,0.2,0,0.3,0v0.7
		c-0.2,0-0.3,0.1-0.5,0.1c-0.9,0-1-0.4-1-0.9c-0.4,0.4-1,0.9-2.1,0.9s-1.8-0.7-1.8-1.7c0-0.5,0.1-1.6,1.7-1.8l1.6-0.2
		c0.2,0,0.5-0.1,0.5-0.7c0-0.6-0.4-0.9-1.4-0.9c-1.1,0-1.3,0.7-1.3,1.1L396,237.6L396,237.6z M399.5,238.7c-0.2,0.1-0.4,0.2-1.6,0.4
		c-0.5,0.1-1.2,0.2-1.2,0.9c0,0.6,0.3,1,1,1c0.9,0,1.8-0.6,1.8-1.4L399.5,238.7"/>
	<path class="st3" d="M402.1,235.9h0.9v0.8c0.2-0.3,0.7-1,1.7-1s1.4,0.6,1.5,0.9c0.5-0.5,0.9-0.9,1.8-0.9c0.6,0,1.8,0.3,1.8,1.9v4
		h-1v-3.7c0-0.8-0.2-1.3-1.1-1.3c-0.8,0-1.4,0.8-1.4,1.5v3.5h-1v-4c0-0.5-0.2-1.1-0.9-1.1c-0.5,0-1.5,0.4-1.5,1.9v3.1h-1v-5.6
		L402.1,235.9z"/>
	<path class="st3" d="M411.3,234.8v-1.1h1v1.1H411.3 M412.3,241.6h-1v-5.8h1V241.6"/>
	<path class="st3" d="M414.7,241.6h-1v-7.9h1V241.6"/>
	<path class="st3" d="M419.6,235.9h1.1c-0.7,1.9-1.3,3.8-2.1,5.6c-0.9,2.3-1,2.5-2.3,2.5c-0.1,0-0.3,0-0.4-0.1V243
		c0.1,0,0.3,0.1,0.6,0.1c0.5,0,0.6-0.1,1-1.3l-2.1-5.9h1.1l1.5,4.7L419.6,235.9"/>
	<path class="st3" d="M429.3,241.6h-0.9v-0.8c-0.4,0.8-1.1,1-1.6,1c-2,0-2.5-1.8-2.5-3.2c0-1.6,0.9-2.9,2.4-2.9c1,0,1.5,0.6,1.7,1
		v-0.1v-2.9h1v7.9H429.3z M426.7,241c0.6,0,1.6-0.4,1.6-1.9c0-0.9-0.2-2.4-1.6-2.4c-1.5,0-1.6,1.4-1.6,2.2
		C425.2,240,425.7,241,426.7,241"/>
	<path class="st3" d="M430.7,234.8v-1.1h1v1.1H430.7 M431.6,241.6h-1v-5.8h1V241.6"/>
	<path class="st3" d="M436.3,237.5c0-0.4-0.1-1-1.4-1c-0.3,0-1.1,0.1-1.1,0.8c0,0.5,0.3,0.6,1,0.8l1,0.2c1.2,0.3,1.6,0.7,1.6,1.5
		c0,1.2-1,1.9-2.3,1.9c-2.3,0-2.4-1.3-2.5-2h0.9c0,0.5,0.2,1.2,1.5,1.2c0.7,0,1.3-0.3,1.3-0.9c0-0.5-0.3-0.6-1.1-0.8l-1.1-0.3
		c-0.8-0.2-1.3-0.6-1.3-1.4c0-1.3,1-1.8,2.2-1.8c2.1,0,2.2,1.5,2.2,1.8H436.3"/>
	<path class="st3" d="M442.2,237.8c-0.1-0.8-0.5-1.2-1.4-1.2c-1.2,0-1.6,1.1-1.6,2.2c0,1,0.2,2.2,1.6,2.2c0.6,0,1.2-0.5,1.4-1.4h0.9
		c-0.1,0.9-0.7,2.2-2.3,2.2c-1.6,0-2.6-1.2-2.6-2.9c0-1.8,0.9-3.2,2.8-3.2c1.5,0,2.1,1.1,2.2,2.1L442.2,237.8"/>
	<path class="st3" d="M446.4,235.7c1.8,0,2.7,1.6,2.7,3c0,1.5-0.8,3-2.7,3c-1.8,0-2.7-1.6-2.7-3
		C443.8,237.3,444.6,235.7,446.4,235.7 M446.4,240.9c1.4,0,1.7-1.4,1.7-2.2s-0.3-2.2-1.7-2.2c-1.4,0-1.7,1.4-1.7,2.2
		C444.8,239.5,445,240.9,446.4,240.9"/>
	<path class="st3" d="M454,241.6v-0.8c-0.4,0.7-0.9,1-1.8,1c-0.8,0-1.9-0.4-1.9-1.8v-4.1h1v3.8c0,0.9,0.5,1.3,1.1,1.3
		c1.2,0,1.6-1.1,1.6-1.9v-3.2h1v5.8h-1L454,241.6z"/>
	<path class="st3" d="M461,241.6h-1v-3.5c0-1-0.3-1.5-1.2-1.5c-0.5,0-1.5,0.4-1.5,1.9v3.1h-1v-5.8h0.9v0.8c0.2-0.3,0.7-1,1.7-1
		c0.9,0,2,0.4,2,2v4H461z"/>
	<path class="st3" d="M463.6,236.7v3.7c0,0.5,0.4,0.5,0.6,0.5h0.3v0.8c-0.4,0-0.6,0.1-0.7,0.1c-1,0-1.2-0.5-1.2-1.2v-3.8h-0.8V236
		h0.8v-1.6h1v1.6h0.9v0.8h-0.9L463.6,236.7z"/>
	<path class="st3" d="M468.8,237.5c0-0.4-0.1-1-1.4-1c-0.3,0-1.1,0.1-1.1,0.8c0,0.5,0.3,0.6,1,0.8l1,0.2c1.2,0.3,1.6,0.7,1.6,1.5
		c0,1.2-1,1.9-2.3,1.9c-2.3,0-2.4-1.3-2.5-2h0.9c0,0.5,0.2,1.2,1.5,1.2c0.7,0,1.3-0.3,1.3-0.9c0-0.5-0.3-0.6-1.1-0.8l-1.1-0.3
		c-0.8-0.2-1.3-0.6-1.3-1.4c0-1.3,1-1.8,2.2-1.8c2.1,0,2.2,1.5,2.2,1.8H468.8"/>
</g>
<g>
	<path class="st4" d="M390.3,250.4H507v2H390.3V250.4z"/>
	<path class="st4" d="M390.3,259.3H507v2H390.3V259.3z"/>
	<path class="st4" d="M390.3,268.3h94.2v2h-94.2V268.3z"/>
</g>
</svg>
